<svg xmlns="http://www.w3.org/2000/svg" viewBox="0 0 80.97 80.97"><defs><style>.cls-1{fill:#39aa35;}.cls-2{fill:#cbd62f;}.cls-3{fill:#e5df04;}.cls-4{fill:#fff;}.cls-5{fill:#6fbacf;}</style></defs><g id="Calque_2" data-name="Calque 2"><g id="les_fleurs" data-name="les fleurs"><rect class="cls-1" width="80.97" height="80.97"/><path class="cls-2" d="M14.85,2.81a1.68,1.68,0,0,0-.62-1.22,1.53,1.53,0,0,1,.7.86c.32.7.47-1,.09-1.4,0,0,.53.18.47,1.33a.43.43,0,0,0,.27-.45,1.71,1.71,0,0,1,.4-.82,3,3,0,0,0-.3,1.61"/><path class="cls-2" d="M22.5,15.13a1.65,1.65,0,0,0-.62-1.21,1.57,1.57,0,0,1,.71.85c.31.7.46-1,.08-1.39,0,0,.53.17.47,1.33a.45.45,0,0,0,.27-.45,1.78,1.78,0,0,1,.41-.83,3,3,0,0,0-.31,1.62"/><path class="cls-2" d="M3.41,7.34A1.63,1.63,0,0,0,2.8,6.12,1.53,1.53,0,0,1,3.5,7c.32.71.47-1,.09-1.39,0,0,.53.18.46,1.33a.45.45,0,0,0,.28-.45,1.7,1.7,0,0,1,.4-.83,3.05,3.05,0,0,0-.3,1.62"/><path class="cls-2" d="M10,14.91a1.69,1.69,0,0,0-.61-1.22,1.58,1.58,0,0,1,.7.86c.31.7.46-1,.09-1.4,0,0,.52.18.46,1.33A.43.43,0,0,0,11,14a1.84,1.84,0,0,1,.41-.83,3,3,0,0,0-.3,1.62"/><path class="cls-2" d="M27.4,27.14a1.68,1.68,0,0,0-.62-1.22,1.57,1.57,0,0,1,.71.86c.31.7.46-1,.08-1.4,0,0,.53.18.47,1.33a.43.43,0,0,0,.27-.45,1.86,1.86,0,0,1,.4-.83,3.05,3.05,0,0,0-.3,1.62"/><path class="cls-2" d="M6.84,25a1.65,1.65,0,0,0-.62-1.21,1.53,1.53,0,0,1,.7.85c.32.7.47-1,.09-1.39,0,0,.53.17.47,1.33a.45.45,0,0,0,.27-.45,1.7,1.7,0,0,1,.4-.83,3,3,0,0,0-.3,1.62"/><path class="cls-3" d="M1.75.63a.42.42,0,0,1,.39.14,1.25,1.25,0,0,1,.23.52s.13-.5.34-.6.23-.09.47,0a.29.29,0,0,1,.2.38c0,.08,0,.28-.63.7h0s.59-.31.86,0,.19.49,0,.59a1.32,1.32,0,0,1-.89,0s0,0,0,0,.31.5.13.77a.41.41,0,0,1-.6.1c-.17-.1-.24-.48-.18-.76,0,0,0-.17,0-.11s-.63.6-1,.3-.14-.83.13-.85a1.51,1.51,0,0,1,.59,0s.08,0,0,0S1,1.24,1.26.9C1.26.9,1.32.72,1.75.63Z"/><path class="cls-4" d="M2.15,1.48s-.3.12-.27.37.23.48.45.44.43-.27.4-.4A.45.45,0,0,0,2.15,1.48Z"/><path class="cls-5" d="M13.24,9.41a.28.28,0,0,1,.25.09.87.87,0,0,1,.14.33s.08-.32.22-.38.14,0,.29,0a.18.18,0,0,1,.13.24s0,.17-.4.44h0s.38-.2.55,0,.12.31,0,.38a.88.88,0,0,1-.57,0s0,0,0,0,.2.32.08.49a.26.26,0,0,1-.38.06.52.52,0,0,1-.11-.48s0-.1,0-.07-.39.38-.6.19-.09-.52.08-.53a.84.84,0,0,1,.37,0s0,0,0,0-.56-.32-.38-.54C12.93,9.58,13,9.47,13.24,9.41Z"/><path class="cls-4" d="M13.49,10s-.19.08-.17.23.15.31.29.28.27-.17.25-.25S13.81,9.9,13.49,10Z"/><path class="cls-5" d="M14.14,4.42a.28.28,0,0,1,.25.09.81.81,0,0,1,.14.33s.08-.32.22-.38a.27.27,0,0,1,.29,0,.2.2,0,0,1,.13.24s0,.18-.4.44h0s.37-.2.55,0,.11.31,0,.37a.85.85,0,0,1-.56,0s0,0,0,0,.2.31.08.48a.26.26,0,0,1-.38.06.52.52,0,0,1-.11-.48s0-.1,0-.06-.39.37-.6.18-.09-.52.08-.53a1,1,0,0,1,.37,0s.05,0,0,0-.56-.33-.38-.54C13.83,4.59,13.87,4.47,14.14,4.42Z"/><path class="cls-4" d="M14.39,5s-.19.07-.17.23.15.3.29.28.26-.17.24-.26A.27.27,0,0,0,14.39,5Z"/><path class="cls-3" d="M17.7.53a.42.42,0,0,1,.39.14,1.41,1.41,0,0,1,.23.52s.13-.5.34-.6a.45.45,0,0,1,.46,0,.3.3,0,0,1,.21.39c0,.07,0,.27-.63.69,0,0,0,0,0,0s.59-.32.87,0,.18.5,0,.6a1.33,1.33,0,0,1-.89-.05s0,0,0,0,.32.5.13.77a.4.4,0,0,1-.59.1c-.17-.1-.24-.48-.18-.76,0,0,.05-.16,0-.11s-.63.6-1,.3-.15-.82.13-.84a1.34,1.34,0,0,1,.58,0s.09,0,0,0-.88-.52-.59-.86C17.21.8,17.27.62,17.7.53Z"/><path class="cls-4" d="M18.1,1.38s-.31.12-.27.37.23.49.45.44.43-.26.39-.4A.44.44,0,0,0,18.1,1.38Z"/><path class="cls-5" d="M22.77,1.94A.28.28,0,0,1,23,2a.87.87,0,0,1,.14.33s.08-.32.22-.38.14-.05.29,0a.18.18,0,0,1,.13.24s0,.17-.4.44h0s.38-.2.55,0,.12.31,0,.38a.85.85,0,0,1-.56,0s0,0,0,0,.2.32.08.49a.26.26,0,0,1-.38.06A.52.52,0,0,1,23,3.06S23,3,23,3s-.39.38-.6.19-.09-.52.08-.53a.84.84,0,0,1,.37,0s.05,0,0,0-.56-.32-.38-.54C22.46,2.11,22.5,2,22.77,1.94Z"/><path class="cls-4" d="M23,2.48s-.19.08-.17.23S23,3,23.14,3s.27-.17.24-.25S23.34,2.43,23,2.48Z"/><path class="cls-3" d="M7.1,4.79a.44.44,0,0,1,.4.14,1.32,1.32,0,0,1,.22.52s.13-.5.35-.6.22-.08.46,0a.31.31,0,0,1,.21.39c-.05.07,0,.27-.64.69h0s.59-.32.86,0,.19.5,0,.6a1.3,1.3,0,0,1-.9-.05s0,0,0,0,.32.51.13.77a.41.41,0,0,1-.6.1c-.17-.09-.23-.48-.17-.76,0,0,0-.16,0-.11s-.63.6-1,.3-.14-.82.13-.84a1.38,1.38,0,0,1,.59,0s.08,0,0,0-.89-.52-.59-.86C6.62,5.06,6.67,4.88,7.1,4.79Z"/><path class="cls-4" d="M7.51,5.64s-.31.12-.28.37.23.49.46.44.42-.26.39-.4A.45.45,0,0,0,7.51,5.64Z"/><path class="cls-5" d="M4.47,9.12a.28.28,0,0,1,.25.09.87.87,0,0,1,.14.33s.08-.32.22-.38a.27.27,0,0,1,.29,0,.19.19,0,0,1,.13.25s0,.17-.4.43h0s.38-.2.55,0,.12.31,0,.37a.81.81,0,0,1-.57,0s0,0,0,0,.2.32.08.49a.26.26,0,0,1-.38.06.52.52,0,0,1-.11-.48s0-.11,0-.07-.39.38-.6.19-.09-.52.08-.54a1,1,0,0,1,.37,0s.06,0,0,0S4,9.51,4.16,9.29C4.16,9.29,4.2,9.18,4.47,9.12Z"/><path class="cls-4" d="M4.73,9.66s-.2.07-.18.23.15.31.29.28.27-.17.25-.25S5,9.61,4.73,9.66Z"/><path class="cls-5" d="M25.58,10.77a.28.28,0,0,1,.25.09.87.87,0,0,1,.14.33s.08-.32.21-.38.15-.05.3,0a.2.2,0,0,1,.13.24s0,.17-.4.44h0s.37-.2.55,0,.11.31,0,.38a.85.85,0,0,1-.56,0s0,0,0,0,.2.32.08.49a.26.26,0,0,1-.38.06c-.11-.06-.15-.3-.11-.48,0,0,0-.1,0-.07s-.4.38-.6.19-.1-.52.08-.53a.84.84,0,0,1,.37,0s.05,0,0,0-.55-.32-.37-.54C25.27,10.94,25.31,10.83,25.58,10.77Z"/><path class="cls-4" d="M25.83,11.31s-.19.08-.17.23.15.31.29.28.26-.17.24-.25A.28.28,0,0,0,25.83,11.31Z"/><path class="cls-3" d="M3.21,12.36a.42.42,0,0,1,.39.14,1.27,1.27,0,0,1,.23.53s.13-.51.34-.6.23-.09.47,0a.29.29,0,0,1,.2.38c0,.07,0,.28-.63.69h0s.59-.32.86,0,.19.49,0,.59a1.35,1.35,0,0,1-.9,0s0,0,0,0,.32.51.13.78a.4.4,0,0,1-.6.09c-.17-.09-.24-.47-.18-.76,0,0,.06-.16,0-.11s-.63.6-1,.3-.14-.82.13-.84a1.31,1.31,0,0,1,.59,0s.08,0,0,0-.89-.51-.6-.86C2.72,12.63,2.78,12.45,3.21,12.36Z"/><path class="cls-4" d="M3.62,13.22s-.31.12-.28.36.23.49.45.45.43-.27.4-.41A.44.44,0,0,0,3.62,13.22Z"/><path class="cls-5" d="M2,21a.27.27,0,0,1,.25.09.79.79,0,0,1,.15.33s.08-.32.21-.38.14,0,.29,0a.18.18,0,0,1,.13.24s0,.17-.39.44h0s.37-.2.54,0,.12.31,0,.38a.88.88,0,0,1-.57,0s0,0,0,0,.2.32.09.49a.26.26,0,0,1-.38.06c-.11-.06-.15-.3-.11-.48,0,0,0-.1,0-.07s-.4.38-.61.19-.09-.52.09-.53a.77.77,0,0,1,.37,0s.05,0,0,0-.56-.32-.37-.54C1.74,21.19,1.77,21.08,2,21Z"/><path class="cls-4" d="M2.3,21.56s-.19.08-.17.23.14.31.28.28.27-.17.25-.25A.28.28,0,0,0,2.3,21.56Z"/><path class="cls-3" d="M16,13a.44.44,0,0,1,.4.14,1.32,1.32,0,0,1,.22.52s.13-.5.35-.6a.44.44,0,0,1,.46,0,.31.31,0,0,1,.21.39c0,.07,0,.27-.64.69h0s.59-.32.86-.05.19.5,0,.6a1.36,1.36,0,0,1-.9,0s0,0,0,0,.32.51.13.77a.41.41,0,0,1-.6.1.78.78,0,0,1-.17-.76s.05-.16,0-.11-.63.6-1,.3-.14-.82.13-.84a1.38,1.38,0,0,1,.59,0s.08,0,0,0-.89-.52-.6-.86C15.52,13.27,15.58,13.09,16,13Z"/><path class="cls-4" d="M16.42,13.85s-.31.12-.28.37.23.49.46.44.42-.26.39-.4A.45.45,0,0,0,16.42,13.85Z"/><path class="cls-5" d="M18.45,7A.27.27,0,0,1,18.7,7a.87.87,0,0,1,.14.33s.09-.32.22-.38a.27.27,0,0,1,.29,0,.18.18,0,0,1,.13.24s0,.18-.4.44h0s.37-.21.54,0,.12.31,0,.37a.76.76,0,0,1-.57,0s0,0,0,0,.2.31.08.48a.25.25,0,0,1-.37.06c-.11-.06-.15-.3-.11-.48,0,0,0-.1,0-.06s-.4.37-.61.18-.09-.51.08-.53a1,1,0,0,1,.37,0s.06,0,0,0-.56-.32-.37-.54C18.15,7.12,18.18,7,18.45,7Z"/><path class="cls-4" d="M18.71,7.49s-.2.07-.17.23.14.3.28.28.27-.17.25-.26A.27.27,0,0,0,18.71,7.49Z"/><path class="cls-3" d="M26.77,15.62a.45.45,0,0,1,.39.14,1.27,1.27,0,0,1,.23.53s.13-.51.34-.6.23-.09.46,0a.29.29,0,0,1,.21.38c0,.07,0,.28-.63.7h0s.58-.32.86,0,.18.49,0,.59a1.32,1.32,0,0,1-.89,0s0,0,0,0,.31.51.13.78a.4.4,0,0,1-.6.09c-.17-.09-.24-.47-.18-.76,0,0,.05-.16,0-.1s-.63.59-1,.29-.15-.82.13-.84a1.31,1.31,0,0,1,.59,0s.08,0,0,0-.89-.51-.6-.85C26.28,15.9,26.34,15.71,26.77,15.62Z"/><path class="cls-4" d="M27.17,16.48s-.3.12-.27.36.23.49.45.45.43-.27.39-.4A.43.43,0,0,0,27.17,16.48Z"/><path class="cls-5" d="M18.14,21.25a.28.28,0,0,1,.25.09.87.87,0,0,1,.14.33s.08-.32.22-.38.14-.05.29,0a.18.18,0,0,1,.13.24s0,.17-.4.44h0s.38-.2.55,0,.12.31,0,.38a.85.85,0,0,1-.56,0s0,0,0,0,.2.32.08.49a.26.26,0,0,1-.38.06.52.52,0,0,1-.11-.48s0-.1,0-.07-.39.38-.6.19-.09-.52.08-.53a.84.84,0,0,1,.37,0s.05,0,0,0-.56-.32-.38-.54C17.83,21.42,17.87,21.31,18.14,21.25Z"/><path class="cls-4" d="M18.39,21.79s-.19.08-.17.23.15.31.29.28.27-.17.25-.25S18.71,21.74,18.39,21.79Z"/><path class="cls-3" d="M2.17,25.09a.44.44,0,0,1,.4.14,1.43,1.43,0,0,1,.23.53s.13-.51.34-.6.22-.09.46,0a.3.3,0,0,1,.21.39c0,.07,0,.28-.63.69,0,0,0,0,0,0s.59-.32.87-.05.18.5,0,.6a1.3,1.3,0,0,1-.9-.05s0,0,0,0,.32.51.13.78a.4.4,0,0,1-.6.09c-.16-.09-.23-.47-.17-.76,0,0,.05-.16,0-.11s-.62.6-1,.3-.14-.82.14-.84a1.27,1.27,0,0,1,.58,0s.09,0,0,0-.88-.51-.59-.86C1.69,25.36,1.75,25.18,2.17,25.09Z"/><path class="cls-4" d="M2.58,26s-.31.12-.27.36.23.49.45.45.42-.27.39-.41A.43.43,0,0,0,2.58,26Z"/><path class="cls-5" d="M19,25.21a.28.28,0,0,1,.25.09.87.87,0,0,1,.14.33s.08-.32.22-.38a.27.27,0,0,1,.29,0,.18.18,0,0,1,.13.24c0,.05,0,.18-.4.44h0s.38-.2.55,0,.12.31,0,.37a.74.74,0,0,1-.56,0s0,0,0,0,.2.31.08.48a.27.27,0,0,1-.38.07.54.54,0,0,1-.11-.49s0-.1,0-.06-.39.38-.6.18-.09-.51.08-.53a1,1,0,0,1,.37,0s.05,0,0,0-.56-.32-.38-.54C18.65,25.38,18.69,25.27,19,25.21Z"/><path class="cls-4" d="M19.21,25.75S19,25.82,19,26s.15.31.29.28.27-.17.25-.26S19.53,25.7,19.21,25.75Z"/><path class="cls-5" d="M11.85,19.54a.26.26,0,0,1,.24.09.79.79,0,0,1,.15.33s.08-.32.21-.38.15,0,.3,0a.2.2,0,0,1,.13.24s0,.17-.4.44h0s.37-.2.55,0,.11.31,0,.38a.85.85,0,0,1-.56,0s0,0,0,0,.2.32.08.49a.26.26,0,0,1-.38.06c-.11-.06-.15-.3-.11-.48,0,0,0-.1,0-.07s-.4.38-.61.19-.09-.52.09-.53a.77.77,0,0,1,.37,0s.05,0,0,0-.56-.32-.37-.54C11.54,19.71,11.58,19.6,11.85,19.54Z"/><path class="cls-4" d="M12.1,20.08s-.19.08-.17.23.14.31.28.28.27-.17.25-.25A.28.28,0,0,0,12.1,20.08Z"/><path class="cls-5" d="M26.73,20.78a.27.27,0,0,1,.25.09.87.87,0,0,1,.14.33s.09-.32.22-.38.14-.05.29,0a.18.18,0,0,1,.13.24s0,.17-.4.44h0s.37-.2.54,0,.12.31,0,.38a.88.88,0,0,1-.57,0s0,0,0,0,.2.32.08.49a.25.25,0,0,1-.37.06c-.11-.06-.15-.3-.12-.48,0,0,0-.1,0-.07s-.4.38-.61.19-.09-.52.08-.53a.77.77,0,0,1,.37,0s.06,0,0,0-.56-.32-.38-.53C26.42,21,26.46,20.84,26.73,20.78Z"/><path class="cls-4" d="M27,21.32s-.2.08-.18.23.15.31.29.28.27-.17.25-.25A.28.28,0,0,0,27,21.32Z"/><path class="cls-3" d="M24.45,24.08a.45.45,0,0,1,.39.14,1.27,1.27,0,0,1,.23.53s.13-.51.34-.6.23-.09.46,0a.29.29,0,0,1,.21.38c0,.07,0,.28-.63.7h0s.59-.32.87,0,.18.49,0,.59a1.32,1.32,0,0,1-.89,0s0,0,0,0,.31.51.13.78a.4.4,0,0,1-.6.09c-.17-.09-.24-.47-.18-.76,0,0,.05-.16,0-.11s-.63.6-1,.3-.15-.82.13-.84a1.31,1.31,0,0,1,.59,0s.08,0,0,0-.89-.51-.6-.85C24,24.36,24,24.17,24.45,24.08Z"/><path class="cls-4" d="M24.85,24.94s-.3.12-.27.36.23.49.45.45.43-.27.39-.4A.43.43,0,0,0,24.85,24.94Z"/><path class="cls-5" d="M6.84,1.94A.28.28,0,0,1,7.09,2a.87.87,0,0,1,.14.33S7.31,2,7.44,2s.15-.05.3,0a.19.19,0,0,1,.13.24s0,.17-.4.44h0s.37-.2.55,0,.11.31,0,.38a.85.85,0,0,1-.56,0s0,0,0,0,.2.32.08.49a.26.26,0,0,1-.38.06.52.52,0,0,1-.11-.48s0-.1,0-.07-.4.38-.6.19-.09-.52.08-.53a.84.84,0,0,1,.37,0s0,0,0,0-.56-.32-.38-.54C6.53,2.11,6.57,2,6.84,1.94Z"/><path class="cls-4" d="M7.09,2.48s-.19.08-.17.23.15.31.29.28.26-.17.24-.25A.28.28,0,0,0,7.09,2.48Z"/><path class="cls-3" d="M24.45,5.15a.42.42,0,0,1,.39.14,1.27,1.27,0,0,1,.23.53s.13-.51.34-.6.23-.09.46,0a.29.29,0,0,1,.21.38c0,.07,0,.28-.63.69,0,0,0,0,0,0s.59-.32.87,0,.18.5,0,.6a1.27,1.27,0,0,1-.89,0s0,0,0,0,.31.51.13.78a.4.4,0,0,1-.6.09c-.17-.09-.24-.47-.18-.76,0,0,.05-.16,0-.11s-.63.6-1,.3-.15-.82.13-.84a1.31,1.31,0,0,1,.59,0s.08,0,0,0-.89-.51-.6-.86C24,5.42,24,5.24,24.45,5.15Z"/><path class="cls-4" d="M24.85,6s-.3.12-.27.36.23.49.45.45.43-.27.39-.41S25.35,5.93,24.85,6Z"/><path class="cls-5" d="M22.45,17.21a.27.27,0,0,1,.25.09.79.79,0,0,1,.15.33s.08-.32.21-.38a.28.28,0,0,1,.29,0,.19.19,0,0,1,.14.24s0,.17-.4.44h0s.37-.2.55,0,.11.31,0,.38a.85.85,0,0,1-.56,0s0,0,0,0,.2.32.09.49a.26.26,0,0,1-.38.06c-.11-.06-.15-.3-.11-.48,0,0,0-.1,0-.07s-.4.38-.61.19-.09-.52.09-.53a.84.84,0,0,1,.37,0s.05,0,0,0-.56-.32-.37-.54C22.15,17.38,22.19,17.27,22.45,17.21Z"/><path class="cls-4" d="M22.71,17.75s-.19.08-.17.23.14.31.28.28.27-.17.25-.25A.28.28,0,0,0,22.71,17.75Z"/><path class="cls-3" d="M8.91,17.75a.44.44,0,0,1,.4.14,1.41,1.41,0,0,1,.23.52s.13-.5.34-.6.23-.09.46,0a.3.3,0,0,1,.21.38c0,.08,0,.28-.63.7,0,0,0,0,0,0s.59-.32.87-.05.18.49,0,.59a1.32,1.32,0,0,1-.89,0s0,0,0,0,.32.5.13.77a.4.4,0,0,1-.59.1c-.17-.1-.24-.48-.18-.76,0,0,.05-.17,0-.11s-.62.6-1,.3-.14-.82.14-.85a1.47,1.47,0,0,1,.58,0s.09,0,0,0-.88-.51-.59-.85C8.43,18,8.49,17.84,8.91,17.75Z"/><path class="cls-4" d="M9.32,18.6s-.31.12-.27.37.23.48.45.44.43-.27.39-.4A.44.44,0,0,0,9.32,18.6Z"/><path class="cls-3" d="M11.61,25.56a.44.44,0,0,1,.4.14,1.35,1.35,0,0,1,.23.52s.13-.5.34-.6.23-.09.46,0a.29.29,0,0,1,.21.38c0,.07,0,.28-.63.7h0s.59-.32.87,0,.18.49,0,.59a1.32,1.32,0,0,1-.89,0s0,0,0,0,.32.5.13.77a.4.4,0,0,1-.59.1c-.17-.1-.24-.48-.18-.77,0,0,0-.16,0-.1s-.62.6-1,.29-.14-.82.14-.84a1.47,1.47,0,0,1,.58,0s.09,0,0,0-.88-.51-.59-.85C11.13,25.83,11.19,25.65,11.61,25.56Z"/><path class="cls-4" d="M12,26.41s-.31.12-.27.37.23.48.45.44.43-.27.39-.4A.44.44,0,0,0,12,26.41Z"/><path class="cls-2" d="M44.56,2.49A1.62,1.62,0,0,0,44,1.28a1.53,1.53,0,0,1,.7.85c.32.7.47-1,.09-1.39,0,0,.53.17.46,1.33a.45.45,0,0,0,.28-.45,1.7,1.7,0,0,1,.4-.83,3,3,0,0,0-.3,1.62"/><path class="cls-2" d="M52.22,14.82a1.66,1.66,0,0,0-.62-1.22,1.53,1.53,0,0,1,.7.85c.32.71.47-1,.09-1.39,0,0,.53.18.47,1.33a.43.43,0,0,0,.27-.45,1.8,1.8,0,0,1,.4-.83,3.05,3.05,0,0,0-.3,1.62"/><path class="cls-2" d="M33.13,7a1.64,1.64,0,0,0-.61-1.22,1.53,1.53,0,0,1,.7.86c.31.7.46-1,.09-1.4,0,0,.52.18.46,1.33a.44.44,0,0,0,.28-.45,1.76,1.76,0,0,1,.4-.83,3.05,3.05,0,0,0-.3,1.62"/><path class="cls-2" d="M39.76,14.59a1.65,1.65,0,0,0-.62-1.21,1.57,1.57,0,0,1,.71.85c.31.7.46-1,.08-1.39,0,0,.53.17.47,1.33a.45.45,0,0,0,.27-.45,1.8,1.8,0,0,1,.4-.83,3,3,0,0,0-.3,1.62"/><path class="cls-2" d="M57.12,26.82a1.65,1.65,0,0,0-.62-1.21,1.53,1.53,0,0,1,.7.85c.32.7.47-1,.09-1.39,0,0,.53.17.47,1.33A.45.45,0,0,0,58,26a1.7,1.7,0,0,1,.4-.83,3,3,0,0,0-.3,1.62"/><path class="cls-2" d="M36.55,24.64a1.64,1.64,0,0,0-.61-1.22,1.53,1.53,0,0,1,.7.85c.32.71.47-1,.09-1.39,0,0,.53.18.46,1.33a.44.44,0,0,0,.28-.45,1.7,1.7,0,0,1,.4-.83,3.05,3.05,0,0,0-.3,1.62"/><path class="cls-3" d="M31.47.31a.42.42,0,0,1,.39.14,1.27,1.27,0,0,1,.23.53s.13-.51.34-.61a.47.47,0,0,1,.46,0,.3.3,0,0,1,.21.39c0,.07,0,.28-.63.69,0,0,0,0,0,0s.59-.32.87-.05.18.5,0,.6A1.27,1.27,0,0,1,32.47,2s0,0,0,0,.31.51.13.78a.4.4,0,0,1-.6.09c-.17-.09-.24-.48-.18-.76,0,0,.05-.16,0-.11s-.63.6-1,.3-.15-.82.13-.84a1.38,1.38,0,0,1,.59,0s.08,0,0,0S30.69.92,31,.58C31,.58,31,.4,31.47.31Z"/><path class="cls-4" d="M31.87,1.16s-.3.12-.27.37.23.49.45.44.43-.26.39-.4A.44.44,0,0,0,31.87,1.16Z"/><path class="cls-5" d="M43,9.1a.29.29,0,0,1,.25.08.88.88,0,0,1,.14.34s.08-.32.22-.38.14-.06.29,0a.18.18,0,0,1,.13.24c0,.05,0,.18-.4.44h0s.37-.2.55,0,.11.31,0,.37a.85.85,0,0,1-.56,0s0,0,0,0,.2.32.08.49a.26.26,0,0,1-.38.06.52.52,0,0,1-.11-.48s0-.1,0-.07-.39.38-.6.19-.09-.52.08-.53a.77.77,0,0,1,.37,0s0,0,0,0-.56-.33-.38-.54C42.65,9.27,42.69,9.15,43,9.1Z"/><path class="cls-4" d="M43.21,9.63s-.19.08-.17.24.15.3.29.28.27-.17.24-.26S43.53,9.59,43.21,9.63Z"/><path class="cls-5" d="M43.85,4.1a.27.27,0,0,1,.25.09.79.79,0,0,1,.15.33s.08-.32.21-.38a.3.3,0,0,1,.29,0,.21.21,0,0,1,.14.25s0,.17-.4.44h0s.37-.2.55,0,.11.31,0,.38a.85.85,0,0,1-.56,0s0,0,0,0,.2.32.09.49a.26.26,0,0,1-.38.06c-.11-.06-.15-.3-.11-.48,0,0,0-.1,0-.07s-.4.38-.61.19-.09-.52.09-.53a.84.84,0,0,1,.37,0s0,0,0,0-.56-.32-.37-.54C43.55,4.27,43.59,4.16,43.85,4.1Z"/><path class="cls-4" d="M44.11,4.64s-.19.08-.17.23.14.31.28.28.27-.17.25-.25A.28.28,0,0,0,44.11,4.64Z"/><path class="cls-3" d="M47.41.21a.44.44,0,0,1,.4.14A1.43,1.43,0,0,1,48,.88s.13-.51.34-.6.22-.09.46,0a.29.29,0,0,1,.21.38c0,.07,0,.28-.63.69,0,0,0,0,0,0s.59-.32.87,0,.18.49,0,.59a1.32,1.32,0,0,1-.89,0s0,0,0,0,.32.51.13.78a.4.4,0,0,1-.6.09c-.16-.09-.23-.47-.17-.76,0,0,0-.16,0-.11s-.62.6-1,.3-.14-.82.14-.84a1.27,1.27,0,0,1,.58,0s.09,0,0,0-.88-.51-.59-.86C46.93.48,47,.3,47.41.21Z"/><path class="cls-4" d="M47.82,1.07s-.31.12-.27.36.23.49.45.45.42-.27.39-.41A.43.43,0,0,0,47.82,1.07Z"/><path class="cls-5" d="M52.49,1.63a.29.29,0,0,1,.25.08.88.88,0,0,1,.14.34s.08-.32.21-.38.15-.06.3,0a.2.2,0,0,1,.13.24c0,.05,0,.18-.4.44h0s.37-.2.55,0,.11.31,0,.37a.85.85,0,0,1-.56,0s0,0,0,0,.2.32.08.49a.26.26,0,0,1-.38.06c-.11-.06-.15-.3-.11-.48,0,0,0-.1,0-.07s-.4.38-.6.19-.1-.52.08-.53a.77.77,0,0,1,.37,0s.05,0,0,0S52,2,52.18,1.8C52.18,1.8,52.22,1.68,52.49,1.63Z"/><path class="cls-4" d="M52.74,2.16s-.19.08-.17.24.15.3.29.28.26-.17.24-.26A.28.28,0,0,0,52.74,2.16Z"/><path class="cls-3" d="M36.82,4.47a.45.45,0,0,1,.39.14,1.27,1.27,0,0,1,.23.53s.13-.51.34-.6.23-.09.47,0a.29.29,0,0,1,.2.38c0,.07,0,.28-.63.69a0,0,0,0,0,0,0s.59-.32.86,0,.19.49,0,.59a1.35,1.35,0,0,1-.9,0s0,0,0,0,.31.51.13.78a.4.4,0,0,1-.6.09c-.17-.09-.24-.47-.18-.76,0,0,0-.16,0-.11s-.63.6-1,.3-.14-.82.13-.84a1.31,1.31,0,0,1,.59,0s.08,0,0,0-.89-.51-.6-.85C36.33,4.75,36.39,4.56,36.82,4.47Z"/><path class="cls-4" d="M37.23,5.33s-.31.12-.28.36.23.49.45.45.43-.27.4-.4S37.72,5.25,37.23,5.33Z"/><path class="cls-5" d="M34.19,8.8a.28.28,0,0,1,.25.09.87.87,0,0,1,.14.33s.08-.31.22-.38.14-.05.29,0a.18.18,0,0,1,.13.24s0,.18-.4.44h0s.37-.2.55,0,.11.32,0,.38a.85.85,0,0,1-.56,0s0,0,0,0,.2.32.08.49a.26.26,0,0,1-.38.06.52.52,0,0,1-.11-.48s0-.1,0-.07-.39.38-.6.19-.09-.52.08-.53a.77.77,0,0,1,.37,0s0,0,0,0-.56-.32-.38-.53C33.88,9,33.92,8.86,34.19,8.8Z"/><path class="cls-4" d="M34.44,9.34s-.19.08-.17.23.15.31.29.28.27-.17.24-.25S34.76,9.29,34.44,9.34Z"/><path class="cls-5" d="M55.29,10.46a.27.27,0,0,1,.25.09.74.74,0,0,1,.15.33s.08-.32.21-.38a.28.28,0,0,1,.29,0,.2.2,0,0,1,.14.24s0,.18-.4.44h0s.37-.2.55,0,.11.31,0,.37a.85.85,0,0,1-.56,0s0,0,0,0,.2.32.09.49a.26.26,0,0,1-.38.06c-.11-.06-.15-.3-.11-.48,0,0,0-.1,0-.06s-.4.37-.61.18-.09-.52.09-.53a1,1,0,0,1,.37,0s0,0,0,0-.56-.33-.37-.54C55,10.63,55,10.51,55.29,10.46Z"/><path class="cls-4" d="M55.55,11s-.19.07-.17.23.14.3.28.28.27-.17.25-.26A.27.27,0,0,0,55.55,11Z"/><path class="cls-3" d="M32.93,12.05a.42.42,0,0,1,.39.14,1.25,1.25,0,0,1,.23.52s.13-.5.34-.6.23-.09.46,0a.29.29,0,0,1,.21.38c0,.08,0,.28-.63.7h0s.58-.31.86,0,.18.49,0,.59a1.32,1.32,0,0,1-.89,0s0,0,0,0,.31.5.13.77a.41.41,0,0,1-.6.1c-.17-.1-.24-.48-.18-.76,0,0,0-.17,0-.11s-.63.6-1,.3-.14-.83.13-.85a1.51,1.51,0,0,1,.59,0s.08,0,0,0-.89-.51-.6-.85C32.44,12.32,32.5,12.14,32.93,12.05Z"/><path class="cls-4" d="M33.33,12.9s-.3.12-.27.37.23.48.45.44.43-.27.4-.4A.45.45,0,0,0,33.33,12.9Z"/><path class="cls-5" d="M31.76,20.71a.27.27,0,0,1,.25.09.81.81,0,0,1,.14.33s.09-.32.22-.38a.27.27,0,0,1,.29,0,.18.18,0,0,1,.13.24c0,.05,0,.18-.4.44h0s.37-.2.54,0,.12.31,0,.37a.88.88,0,0,1-.57,0s0,0,0,0,.2.31.08.48a.25.25,0,0,1-.37.06C32,22.24,32,22,32,21.82c0,0,0-.1,0-.06s-.4.37-.61.18-.09-.52.08-.53a1,1,0,0,1,.37,0s.06,0,0,0-.56-.33-.38-.54C31.45,20.88,31.49,20.76,31.76,20.71Z"/><path class="cls-4" d="M32,21.25s-.2.07-.17.23.14.3.28.28.27-.17.25-.26A.27.27,0,0,0,32,21.25Z"/><path class="cls-3" d="M45.73,12.68a.45.45,0,0,1,.39.14,1.27,1.27,0,0,1,.23.53s.13-.51.34-.6.23-.09.47,0a.29.29,0,0,1,.2.38c0,.07,0,.28-.63.69,0,0,0,0,0,0s.59-.32.86,0,.19.49,0,.59a1.32,1.32,0,0,1-.89,0s0,0,0,0,.31.51.13.78a.4.4,0,0,1-.6.09c-.17-.09-.24-.47-.18-.76,0,0,.05-.16,0-.11s-.63.6-1,.3-.14-.82.13-.84a1.31,1.31,0,0,1,.59,0s.08,0,0,0-.89-.51-.6-.86C45.24,13,45.3,12.77,45.73,12.68Z"/><path class="cls-4" d="M46.13,13.54s-.3.12-.27.36.23.49.45.45.43-.27.4-.41A.44.44,0,0,0,46.13,13.54Z"/><path class="cls-5" d="M48.17,6.63a.27.27,0,0,1,.25.09.87.87,0,0,1,.14.33s.09-.32.22-.38.14,0,.29,0a.18.18,0,0,1,.13.24s0,.17-.4.44h0s.37-.2.54,0,.12.31,0,.38a.88.88,0,0,1-.57,0s0,0,0,0,.2.32.08.49a.25.25,0,0,1-.37.06c-.11-.06-.15-.3-.12-.48,0,0,0-.1,0-.07s-.39.38-.6.19-.09-.52.08-.53a.84.84,0,0,1,.37,0s.06,0,0,0-.56-.32-.38-.54C47.86,6.8,47.9,6.69,48.17,6.63Z"/><path class="cls-4" d="M48.43,7.17s-.2.08-.18.23.15.31.29.28.27-.17.25-.25S48.74,7.12,48.43,7.17Z"/><path class="cls-3" d="M56.49,15.31a.42.42,0,0,1,.39.14,1.25,1.25,0,0,1,.23.52s.13-.5.34-.6.23-.09.46,0a.3.3,0,0,1,.21.38c0,.08,0,.28-.63.7h0s.59-.31.87,0,.18.49,0,.59a1.32,1.32,0,0,1-.89,0s0,0,0,0,.32.5.14.77a.41.41,0,0,1-.6.1c-.17-.1-.24-.48-.18-.76,0,0,0-.17,0-.11s-.63.6-1,.3-.15-.83.13-.85a1.51,1.51,0,0,1,.59,0s.08,0,0,0-.89-.51-.6-.85C56,15.58,56.06,15.4,56.49,15.31Z"/><path class="cls-4" d="M56.89,16.16s-.31.12-.27.37.23.48.45.44.43-.27.39-.4A.43.43,0,0,0,56.89,16.16Z"/><path class="cls-5" d="M47.86,20.94a.29.29,0,0,1,.25.08.88.88,0,0,1,.14.34s.08-.32.22-.38a.27.27,0,0,1,.29,0,.19.19,0,0,1,.13.24c0,.05,0,.18-.4.44h0s.37-.2.55,0,.11.31,0,.37a.85.85,0,0,1-.56,0s0,0,0,0,.2.32.08.49a.26.26,0,0,1-.38.06.52.52,0,0,1-.11-.48s0-.1,0-.07-.39.38-.6.19-.09-.52.08-.53a.77.77,0,0,1,.37,0s0,0,0,0-.56-.33-.38-.54C47.55,21.11,47.59,21,47.86,20.94Z"/><path class="cls-4" d="M48.11,21.48s-.19.07-.17.23.15.3.29.28.26-.17.24-.26S48.43,21.43,48.11,21.48Z"/><path class="cls-3" d="M31.89,24.78a.44.44,0,0,1,.4.14,1.27,1.27,0,0,1,.22.52s.13-.5.35-.6.22-.09.46,0a.3.3,0,0,1,.21.38c0,.07,0,.28-.63.7h0s.59-.32.86,0,.19.49,0,.59a1.35,1.35,0,0,1-.9,0s0,0,0,0,.32.5.13.77a.41.41,0,0,1-.6.1c-.17-.1-.23-.48-.17-.77,0,0,0-.16,0-.1s-.63.6-1,.29-.14-.82.13-.84a1.51,1.51,0,0,1,.59,0s.09,0,0,0-.89-.51-.59-.85C31.41,25.05,31.47,24.87,31.89,24.78Z"/><path class="cls-4" d="M32.3,25.63S32,25.75,32,26s.23.48.46.44.42-.27.39-.4S32.79,25.55,32.3,25.63Z"/><path class="cls-5" d="M48.68,24.89a.28.28,0,0,1,.25.09.87.87,0,0,1,.14.33s.08-.32.22-.38.14-.05.29,0a.19.19,0,0,1,.13.24s0,.17-.4.44h0s.37-.2.55,0,.11.31,0,.38a.85.85,0,0,1-.56,0s0,0,0,0,.2.32.08.49a.26.26,0,0,1-.38.06A.52.52,0,0,1,48.9,26s0-.1,0-.07-.39.38-.6.19-.09-.52.08-.53a.84.84,0,0,1,.37,0s0,0,0,0-.56-.32-.38-.54C48.37,25.06,48.41,25,48.68,24.89Z"/><path class="cls-4" d="M48.93,25.43s-.19.08-.17.23.15.31.29.28.26-.17.24-.25A.28.28,0,0,0,48.93,25.43Z"/><path class="cls-5" d="M41.56,19.23a.27.27,0,0,1,.25.09.74.74,0,0,1,.15.33s.08-.32.21-.38a.28.28,0,0,1,.29,0,.2.2,0,0,1,.14.24c0,.05,0,.18-.4.44h0s.37-.2.55,0,.11.31,0,.37a.85.85,0,0,1-.56,0s0,0,0,0,.2.31.09.48a.26.26,0,0,1-.38.06c-.11-.06-.15-.3-.11-.48,0,0,0-.1,0-.06s-.4.37-.61.18-.09-.52.09-.53a1,1,0,0,1,.37,0s0,0,0,0-.56-.33-.37-.54C41.26,19.4,41.29,19.28,41.56,19.23Z"/><path class="cls-4" d="M41.82,19.77s-.19.07-.17.23.14.3.28.28.27-.17.25-.26A.27.27,0,0,0,41.82,19.77Z"/><path class="cls-5" d="M56.45,20.47a.28.28,0,0,1,.25.09.81.81,0,0,1,.14.33s.08-.32.22-.38a.27.27,0,0,1,.29,0,.18.18,0,0,1,.13.24c0,.05,0,.18-.4.44h0s.38-.21.55,0,.12.31,0,.37a.82.82,0,0,1-.57,0s0,0,0,0,.2.31.08.48a.26.26,0,0,1-.38.06.52.52,0,0,1-.11-.48s0-.1,0-.06-.39.37-.6.18-.09-.51.08-.53a1,1,0,0,1,.37,0s.05,0,0,0-.56-.33-.38-.54C56.14,20.64,56.18,20.52,56.45,20.47Z"/><path class="cls-4" d="M56.7,21s-.19.07-.17.23.15.3.29.28.27-.17.25-.26S57,21,56.7,21Z"/><path class="cls-3" d="M54.17,23.77a.42.42,0,0,1,.39.14,1.41,1.41,0,0,1,.23.52s.13-.5.34-.6.23-.09.46,0a.3.3,0,0,1,.21.38c0,.08,0,.28-.63.7h0s.59-.31.87,0,.18.49,0,.59a1.32,1.32,0,0,1-.89,0s0,0,0,0,.32.5.13.77a.4.4,0,0,1-.59.1c-.17-.1-.24-.48-.18-.76,0,0,0-.17,0-.11s-.63.6-1,.3-.15-.83.13-.85a1.51,1.51,0,0,1,.59,0s.08,0,0,0-.88-.51-.59-.85C53.68,24,53.74,23.86,54.17,23.77Z"/><path class="cls-4" d="M54.57,24.62s-.31.12-.27.37.23.48.45.44.43-.27.39-.4A.43.43,0,0,0,54.57,24.62Z"/><path class="cls-5" d="M36.55,1.63a.29.29,0,0,1,.25.08.81.81,0,0,1,.15.34s.08-.32.21-.38.15-.06.29,0a.2.2,0,0,1,.14.24c0,.05,0,.18-.4.44h0s.37-.2.55,0,.11.31,0,.37a.85.85,0,0,1-.56,0s0,0,0,0,.2.32.09.49a.26.26,0,0,1-.38.06c-.11-.06-.15-.3-.11-.48,0,0,0-.1,0-.07s-.4.38-.61.19-.09-.52.09-.53a.77.77,0,0,1,.37,0s.05,0,0,0-.56-.33-.37-.54C36.25,1.8,36.29,1.68,36.55,1.63Z"/><path class="cls-4" d="M36.81,2.16s-.19.08-.17.24.14.3.28.28.27-.17.25-.26A.28.28,0,0,0,36.81,2.16Z"/><path class="cls-3" d="M54.17,4.84a.42.42,0,0,1,.39.14,1.35,1.35,0,0,1,.23.52s.13-.5.34-.6.23-.09.46,0a.3.3,0,0,1,.21.38c0,.08,0,.28-.63.7h0s.59-.31.87,0,.18.49,0,.59a1.32,1.32,0,0,1-.89,0s0,0,0,0,.32.5.13.77a.4.4,0,0,1-.59.1c-.17-.1-.24-.48-.18-.76,0,0,0-.17,0-.11s-.63.6-1,.3S53.4,6,53.68,6a1.51,1.51,0,0,1,.59,0s.08,0,0,0-.88-.51-.59-.85C53.68,5.11,53.74,4.93,54.17,4.84Z"/><path class="cls-4" d="M54.57,5.69s-.31.12-.27.37.23.48.45.44.43-.27.39-.4A.43.43,0,0,0,54.57,5.69Z"/><path class="cls-5" d="M52.17,16.9a.29.29,0,0,1,.25.08.81.81,0,0,1,.15.34s.08-.32.21-.38a.28.28,0,0,1,.29,0,.18.18,0,0,1,.13.24s0,.18-.39.44h0s.37-.2.54,0,.12.31,0,.37a.85.85,0,0,1-.56,0s0,0,0,0,.2.32.09.49a.26.26,0,0,1-.38.06c-.11-.06-.15-.3-.11-.48,0,0,0-.1,0-.07s-.4.38-.61.19-.09-.52.09-.53a1,1,0,0,1,.37,0s0,0,0,0-.56-.33-.37-.54C51.87,17.07,51.9,17,52.17,16.9Z"/><path class="cls-4" d="M52.43,17.44s-.19.07-.17.23.14.3.28.28.27-.17.25-.26A.27.27,0,0,0,52.43,17.44Z"/><path class="cls-3" d="M38.63,17.43a.44.44,0,0,1,.4.14,1.43,1.43,0,0,1,.23.53s.13-.51.34-.6.22-.09.46,0a.31.31,0,0,1,.21.39c0,.07,0,.28-.63.69,0,0,0,0,0,0s.59-.32.87-.05.18.5,0,.6a1.3,1.3,0,0,1-.9-.05s0,0,0,0,.32.51.13.78a.4.4,0,0,1-.6.09c-.17-.09-.23-.47-.17-.76,0,0,0-.16,0-.11s-.63.6-1,.3-.14-.82.13-.84a1.32,1.32,0,0,1,.59,0s.09,0,0,0-.89-.51-.59-.86C38.15,17.7,38.21,17.52,38.63,17.43Z"/><path class="cls-4" d="M39,18.29s-.31.12-.27.36.23.49.45.45.42-.27.39-.41A.43.43,0,0,0,39,18.29Z"/><path class="cls-3" d="M41.33,25.24a.44.44,0,0,1,.4.14,1.41,1.41,0,0,1,.23.52s.13-.5.34-.6a.44.44,0,0,1,.46,0,.31.31,0,0,1,.21.39c0,.07,0,.27-.63.69,0,0,0,0,0,0s.59-.32.87-.05.18.5,0,.6a1.36,1.36,0,0,1-.9-.05s0,0,0,0,.32.5.13.77a.41.41,0,0,1-.6.1.83.83,0,0,1-.17-.76s.05-.16,0-.11-.63.6-1,.3-.14-.82.13-.85a1.52,1.52,0,0,1,.59,0s.09,0,0,0-.89-.51-.59-.85C40.85,25.51,40.91,25.33,41.33,25.24Z"/><path class="cls-4" d="M41.74,26.09s-.31.12-.27.37.23.49.45.44.42-.26.39-.4A.44.44,0,0,0,41.74,26.09Z"/><path class="cls-2" d="M73.93,3.28a1.69,1.69,0,0,0-.61-1.22,1.58,1.58,0,0,1,.7.86c.31.7.46-1,.09-1.4,0,0,.52.18.46,1.33a.45.45,0,0,0,.28-.45,1.76,1.76,0,0,1,.4-.83A3.05,3.05,0,0,0,75,3.19"/><path class="cls-2" d="M79.28,17.77a1.68,1.68,0,0,0-.62-1.22,1.53,1.53,0,0,1,.7.86c.32.7.47-1,.09-1.4,0,0,.53.18.47,1.33a.43.43,0,0,0,.27-.45,1.76,1.76,0,0,1,.4-.83,3.05,3.05,0,0,0-.3,1.62"/><path class="cls-2" d="M62.5,7.81a1.66,1.66,0,0,0-.62-1.22,1.57,1.57,0,0,1,.71.85c.31.7.46-1,.08-1.39,0,0,.53.18.47,1.33a.45.45,0,0,0,.27-.45,1.8,1.8,0,0,1,.4-.83,3.05,3.05,0,0,0-.3,1.62"/><path class="cls-2" d="M69.12,15.38a1.64,1.64,0,0,0-.61-1.22,1.53,1.53,0,0,1,.7.86c.31.7.47-1,.09-1.4,0,0,.53.18.46,1.33A.44.44,0,0,0,70,14.5a1.7,1.7,0,0,1,.4-.83,3.05,3.05,0,0,0-.3,1.62"/><path class="cls-2" d="M65.92,25.42a1.66,1.66,0,0,0-.61-1.21,1.58,1.58,0,0,1,.7.85c.31.7.46-1,.09-1.39,0,0,.52.17.46,1.33a.46.46,0,0,0,.28-.45,1.7,1.7,0,0,1,.4-.83,2.93,2.93,0,0,0-.3,1.62"/><path class="cls-3" d="M60.83,1.1a.44.44,0,0,1,.4.14,1.35,1.35,0,0,1,.23.52s.13-.5.34-.6.22-.09.46,0a.3.3,0,0,1,.21.38c0,.07,0,.28-.63.7h0s.59-.32.87,0,.18.49,0,.59a1.35,1.35,0,0,1-.9,0s0,0,0,0,.32.5.13.77a.41.41,0,0,1-.6.1.85.85,0,0,1-.17-.77s.05-.16,0-.1-.62.6-1,.29-.14-.82.13-.84a1.52,1.52,0,0,1,.59,0s.09,0,0,0-.88-.51-.59-.85C60.35,1.37,60.41,1.19,60.83,1.1Z"/><path class="cls-4" d="M61.24,2s-.31.12-.27.37.23.48.45.44.42-.27.39-.4A.44.44,0,0,0,61.24,2Z"/><path class="cls-5" d="M72.32,9.88a.27.27,0,0,1,.25.09.79.79,0,0,1,.15.33s.08-.32.21-.38.14-.05.29,0a.19.19,0,0,1,.13.25s0,.17-.39.44h0s.37-.2.54,0,.12.31,0,.38a.88.88,0,0,1-.57,0s0,0,0,0,.2.32.09.49a.26.26,0,0,1-.38.06c-.11-.06-.15-.3-.11-.48,0,0,0-.1,0-.07s-.4.38-.61.19-.09-.52.08-.53a.89.89,0,0,1,.38,0s0,0,0,0-.56-.32-.37-.54C72,10.05,72.05,9.94,72.32,9.88Z"/><path class="cls-4" d="M72.58,10.42s-.19.08-.17.23.14.31.28.28.27-.17.25-.25A.28.28,0,0,0,72.58,10.42Z"/><path class="cls-5" d="M73.22,4.89a.29.29,0,0,1,.25.08.88.88,0,0,1,.14.34s.09-.32.22-.38a.27.27,0,0,1,.29,0,.18.18,0,0,1,.13.24s0,.18-.4.44h0s.37-.2.54,0,.12.31,0,.37a.88.88,0,0,1-.57,0s0,0,0,0,.2.32.08.49a.25.25,0,0,1-.37.06c-.11-.06-.15-.3-.12-.48,0,0,0-.1,0-.07s-.4.38-.61.19-.09-.52.08-.53a1,1,0,0,1,.37,0s.06,0,0,0-.56-.33-.38-.54C72.91,5.06,73,4.94,73.22,4.89Z"/><path class="cls-4" d="M73.48,5.43s-.2.07-.18.23.15.3.29.28.27-.17.25-.26A.27.27,0,0,0,73.48,5.43Z"/><path class="cls-3" d="M76.78,1a.42.42,0,0,1,.39.14,1.25,1.25,0,0,1,.23.52s.13-.5.34-.6.23-.09.47,0a.29.29,0,0,1,.2.38c0,.08,0,.28-.63.7a0,0,0,0,0,0,0s.59-.32.86-.05.19.49,0,.59a1.35,1.35,0,0,1-.9,0s0,0,0,0,.31.5.13.77a.41.41,0,0,1-.6.1c-.17-.1-.24-.48-.18-.76,0,0,.05-.17,0-.11s-.63.6-1,.3-.14-.82.13-.85a1.51,1.51,0,0,1,.59,0s.08,0,0,0-.89-.51-.6-.85C76.29,1.27,76.35,1.09,76.78,1Z"/><path class="cls-4" d="M77.19,1.85s-.31.12-.28.37.23.48.45.44.43-.27.4-.4A.44.44,0,0,0,77.19,1.85Z"/><path class="cls-3" d="M66.19,5.26a.42.42,0,0,1,.39.14,1.41,1.41,0,0,1,.23.52s.13-.5.34-.6.23-.09.46,0a.3.3,0,0,1,.21.39c0,.07,0,.27-.63.69,0,0,0,0,0,0s.59-.32.87-.05.18.5,0,.6a1.33,1.33,0,0,1-.89,0s0,0,0,0,.32.5.13.77a.4.4,0,0,1-.59.1c-.17-.1-.24-.48-.18-.76,0,0,0-.16,0-.11s-.63.6-1,.3-.15-.82.13-.85a1.47,1.47,0,0,1,.58,0s.09,0,0,0-.88-.51-.59-.85C65.7,5.53,65.76,5.35,66.19,5.26Z"/><path class="cls-4" d="M66.59,6.11s-.31.12-.27.37.23.49.45.44.43-.27.39-.4A.44.44,0,0,0,66.59,6.11Z"/><path class="cls-5" d="M63.55,9.59a.27.27,0,0,1,.25.09A.79.79,0,0,1,64,10s.08-.32.21-.38a.28.28,0,0,1,.29,0,.18.18,0,0,1,.13.24c0,.05,0,.18-.39.44,0,0,0,0,0,0s.37-.2.54,0,.12.31,0,.37a.78.78,0,0,1-.56,0s0,0,0,0,.2.32.09.49a.26.26,0,0,1-.38.06c-.11-.06-.15-.3-.11-.48,0,0,0-.11,0-.07s-.4.38-.61.19-.09-.52.09-.54a1,1,0,0,1,.37,0s.05,0,0,0-.56-.32-.37-.54C63.25,9.76,63.28,9.65,63.55,9.59Z"/><path class="cls-4" d="M63.81,10.13s-.19.07-.17.23.14.31.28.28.27-.17.25-.25A.28.28,0,0,0,63.81,10.13Z"/><path class="cls-3" d="M62.29,12.83a.44.44,0,0,1,.4.14,1.43,1.43,0,0,1,.23.53s.13-.51.34-.6a.45.45,0,0,1,.46,0,.3.3,0,0,1,.21.39c0,.07,0,.28-.63.69,0,0,0,0,0,0s.59-.32.87-.05.18.5,0,.6a1.27,1.27,0,0,1-.89,0s0,0,0,0,.32.51.13.78a.39.39,0,0,1-.59.09c-.17-.09-.24-.47-.18-.76,0,0,.05-.16,0-.11s-.62.6-1,.3-.14-.82.14-.84a1.27,1.27,0,0,1,.58,0s.09,0,0,0-.88-.51-.59-.86C61.81,13.1,61.87,12.92,62.29,12.83Z"/><path class="cls-4" d="M62.7,13.69s-.31.12-.27.36.23.49.45.45.42-.27.39-.41A.43.43,0,0,0,62.7,13.69Z"/><path class="cls-5" d="M61.13,21.49a.28.28,0,0,1,.25.09.87.87,0,0,1,.14.33s.08-.32.22-.38.14-.05.29,0a.19.19,0,0,1,.13.24s0,.17-.4.44h0s.37-.2.55,0,.11.31,0,.38a.85.85,0,0,1-.56,0s0,0,0,0,.2.32.08.49a.26.26,0,0,1-.38.06.52.52,0,0,1-.11-.48s0-.1,0-.07-.39.38-.6.19-.09-.52.08-.53a.84.84,0,0,1,.37,0s.05,0,0,0-.56-.32-.38-.54C60.82,21.66,60.86,21.55,61.13,21.49Z"/><path class="cls-4" d="M61.38,22s-.19.08-.17.23.15.31.29.28.26-.17.24-.25A.28.28,0,0,0,61.38,22Z"/><path class="cls-3" d="M75.09,13.47a.44.44,0,0,1,.4.14,1.41,1.41,0,0,1,.23.52s.13-.5.34-.6.23-.09.46,0a.3.3,0,0,1,.21.39c0,.07,0,.27-.63.69,0,0,0,0,0,0s.59-.32.87,0,.18.5,0,.6a1.33,1.33,0,0,1-.89-.05s0,0,0,0,.32.5.13.77a.4.4,0,0,1-.59.1c-.17-.1-.24-.48-.18-.76,0,0,0-.16,0-.11s-.63.6-1,.3-.14-.82.14-.85a1.47,1.47,0,0,1,.58,0s.09,0,0,0-.88-.51-.59-.85C74.61,13.74,74.67,13.56,75.09,13.47Z"/><path class="cls-4" d="M75.5,14.32s-.31.12-.27.37.23.49.45.44.43-.27.39-.4A.44.44,0,0,0,75.5,14.32Z"/><path class="cls-5" d="M77.54,7.42a.26.26,0,0,1,.24.09.74.74,0,0,1,.15.33s.08-.32.21-.38a.29.29,0,0,1,.3,0,.2.2,0,0,1,.13.24s0,.18-.4.44h0s.37-.2.55,0,.11.31,0,.37a.85.85,0,0,1-.56,0s0,0,0,0,.2.32.08.49a.26.26,0,0,1-.38.06c-.11-.06-.15-.3-.11-.48,0,0,0-.1,0-.06s-.4.37-.61.18-.09-.52.09-.53a1,1,0,0,1,.37,0s.05,0,0,0-.55-.33-.37-.54C77.23,7.59,77.27,7.47,77.54,7.42Z"/><path class="cls-4" d="M77.79,8s-.19.07-.17.23.14.3.28.28.27-.17.25-.26A.27.27,0,0,0,77.79,8Z"/><path class="cls-5" d="M77.22,21.72a.27.27,0,0,1,.25.09.79.79,0,0,1,.15.33s.08-.32.21-.38.14-.05.29,0a.19.19,0,0,1,.13.25s0,.17-.39.44h0s.37-.2.54,0,.12.31,0,.38a.88.88,0,0,1-.57,0s0,0,0,0,.2.32.09.49a.26.26,0,0,1-.38.06c-.11-.06-.15-.3-.11-.48,0,0,0-.1,0-.07s-.4.38-.61.19-.09-.52.08-.53a.89.89,0,0,1,.38,0s0,0,0,0-.56-.32-.37-.54C76.92,21.89,77,21.78,77.22,21.72Z"/><path class="cls-4" d="M77.48,22.26s-.19.08-.17.23.14.31.28.28.27-.17.25-.25A.28.28,0,0,0,77.48,22.26Z"/><path class="cls-3" d="M61.26,25.56a.42.42,0,0,1,.39.14,1.27,1.27,0,0,1,.23.53s.13-.51.34-.61a.47.47,0,0,1,.46,0,.3.3,0,0,1,.21.39c0,.07,0,.28-.63.69,0,0,0,0,0,0s.59-.32.87-.05.18.5,0,.6a1.27,1.27,0,0,1-.89-.05s0,0,0,0,.31.51.13.78a.4.4,0,0,1-.6.09c-.17-.09-.24-.47-.18-.76,0,0,0-.16,0-.11s-.63.6-1,.3-.15-.82.13-.84a1.38,1.38,0,0,1,.59,0s.08,0,0,0-.89-.52-.6-.86C60.77,25.83,60.83,25.65,61.26,25.56Z"/><path class="cls-4" d="M61.66,26.42s-.3.11-.27.36.23.49.45.45.43-.27.39-.41S62.16,26.34,61.66,26.42Z"/><path class="cls-5" d="M78,25.68a.27.27,0,0,1,.25.09.74.74,0,0,1,.15.33s.08-.32.21-.38a.27.27,0,0,1,.29,0,.18.18,0,0,1,.13.24c0,.05,0,.18-.39.44h0s.37-.2.54,0,.12.31,0,.37a.88.88,0,0,1-.57,0s0,0,0,0,.2.31.09.48a.26.26,0,0,1-.38.06c-.11-.06-.15-.3-.11-.48,0,0,0-.1,0-.06s-.4.37-.61.18-.09-.51.08-.53a1,1,0,0,1,.38,0s0,0,0,0-.56-.33-.37-.54C77.74,25.85,77.77,25.73,78,25.68Z"/><path class="cls-4" d="M78.3,26.22s-.2.07-.17.23.14.3.28.28.27-.17.25-.26A.27.27,0,0,0,78.3,26.22Z"/><path class="cls-5" d="M70.93,20a.28.28,0,0,1,.25.09.87.87,0,0,1,.14.33s.08-.32.22-.38.14-.05.29,0a.18.18,0,0,1,.13.24s0,.17-.4.44h0s.38-.2.55,0,.12.31,0,.38a.88.88,0,0,1-.57,0s0,0,0,0,.2.32.08.49a.26.26,0,0,1-.38.06.52.52,0,0,1-.11-.48s0-.1,0-.07-.39.38-.6.19-.09-.52.08-.53a.84.84,0,0,1,.37,0s.06,0,0,0-.56-.32-.38-.54C70.62,20.18,70.66,20.07,70.93,20Z"/><path class="cls-4" d="M71.19,20.55s-.2.08-.18.23.15.31.29.28.27-.17.25-.25S71.5,20.5,71.19,20.55Z"/><path class="cls-5" d="M65.92,2.41a.27.27,0,0,1,.25.09.87.87,0,0,1,.14.33s.09-.32.22-.38.14-.05.29,0a.19.19,0,0,1,.13.25s0,.17-.4.44h0s.37-.2.54,0,.12.31,0,.38a.88.88,0,0,1-.57,0s0,0,0,0,.2.32.08.49a.25.25,0,0,1-.37.06c-.11-.06-.15-.3-.12-.48,0,0,0-.1,0-.07s-.4.38-.61.19-.09-.52.08-.53a.84.84,0,0,1,.37,0s.06,0,0,0-.56-.32-.38-.54C65.61,2.58,65.65,2.47,65.92,2.41Z"/><path class="cls-4" d="M66.18,3S66,3,66,3.18s.15.31.29.28.27-.17.25-.25A.28.28,0,0,0,66.18,3Z"/><path class="cls-3" d="M68,18.22a.42.42,0,0,1,.39.14,1.25,1.25,0,0,1,.23.52s.13-.5.34-.6.23-.09.46,0a.3.3,0,0,1,.21.38c0,.08,0,.28-.63.7h0s.58-.31.86,0,.18.49,0,.59a1.32,1.32,0,0,1-.89,0s0,0,0,0,.31.5.13.77a.41.41,0,0,1-.6.1c-.17-.1-.24-.48-.18-.76,0,0,.05-.17,0-.11s-.63.6-1,.3-.14-.83.13-.85a1.51,1.51,0,0,1,.59,0s.08,0,0,0-.89-.51-.6-.85C67.51,18.49,67.57,18.31,68,18.22Z"/><path class="cls-4" d="M68.4,19.07s-.3.12-.27.37.23.48.45.44.43-.27.39-.4A.43.43,0,0,0,68.4,19.07Z"/><path class="cls-3" d="M70.7,26a.43.43,0,0,1,.39.13,1.27,1.27,0,0,1,.23.53s.13-.51.34-.6.23-.09.46,0a.29.29,0,0,1,.21.38c0,.07,0,.28-.63.7h0s.58-.32.86,0,.18.49,0,.59a1.32,1.32,0,0,1-.89,0s0,0,0,0,.31.51.13.78a.4.4,0,0,1-.6.09c-.17-.09-.24-.47-.18-.76,0,0,0-.16,0-.1s-.63.6-1,.29-.14-.82.13-.84a1.31,1.31,0,0,1,.59,0s.08,0,0,0-.89-.51-.6-.85C70.21,26.3,70.27,26.11,70.7,26Z"/><path class="cls-4" d="M71.1,26.88s-.3.12-.27.36.23.49.45.45.43-.27.4-.4A.45.45,0,0,0,71.1,26.88Z"/><path class="cls-2" d="M9.29,31.87a1.68,1.68,0,0,0-.62-1.22,1.62,1.62,0,0,1,.71.86c.31.7.46-1,.08-1.39,0,0,.53.17.47,1.32A.43.43,0,0,0,10.2,31a1.8,1.8,0,0,1,.4-.82,3,3,0,0,0-.3,1.61"/><path class="cls-2" d="M16.94,44.19A1.66,1.66,0,0,0,16.33,43a1.53,1.53,0,0,1,.7.85c.31.7.46-1,.09-1.39,0,0,.52.17.46,1.33a.46.46,0,0,0,.28-.45,1.7,1.7,0,0,1,.4-.83,3,3,0,0,0-.3,1.62"/><path class="cls-2" d="M47,79.78a1.66,1.66,0,0,0-.61-1.21,1.58,1.58,0,0,1,.7.85c.31.7.46-1,.09-1.39,0,0,.52.17.46,1.33a.47.47,0,0,0,.28-.46,1.71,1.71,0,0,1,.4-.82,3,3,0,0,0-.3,1.61"/><path class="cls-2" d="M4.48,44a1.69,1.69,0,0,0-.61-1.22,1.53,1.53,0,0,1,.7.86c.31.7.46-1,.09-1.4,0,0,.52.18.46,1.33a.45.45,0,0,0,.28-.45,1.76,1.76,0,0,1,.4-.83,3.05,3.05,0,0,0-.3,1.62"/><path class="cls-2" d="M21.84,56.2A1.69,1.69,0,0,0,21.23,55a1.58,1.58,0,0,1,.7.86c.31.7.46-1,.09-1.4,0,0,.52.18.46,1.33a.45.45,0,0,0,.28-.45,1.76,1.76,0,0,1,.4-.83,3,3,0,0,0-.3,1.62"/><path class="cls-2" d="M1.28,54A1.65,1.65,0,0,0,.66,52.8a1.57,1.57,0,0,1,.71.85c.31.7.46-1,.08-1.39,0,0,.53.17.47,1.33a.45.45,0,0,0,.27-.45,1.8,1.8,0,0,1,.4-.83,3,3,0,0,0-.3,1.62"/><path class="cls-5" d="M7.68,38.47a.27.27,0,0,1,.25.09.87.87,0,0,1,.14.33s.09-.32.22-.38.14,0,.29,0a.18.18,0,0,1,.13.24s0,.17-.4.44h0s.37-.2.54,0,.12.31,0,.38a.88.88,0,0,1-.57,0s0,0,0,0,.2.32.08.49a.25.25,0,0,1-.37.06c-.11-.06-.15-.3-.12-.48,0,0,0-.1,0-.07s-.4.38-.61.19-.09-.52.08-.53a.85.85,0,0,1,.37,0s.06,0,0,0-.56-.32-.38-.54C7.37,38.64,7.41,38.53,7.68,38.47Z"/><path class="cls-4" d="M7.94,39s-.2.08-.18.23.15.31.29.28.27-.17.25-.25A.28.28,0,0,0,7.94,39Z"/><path class="cls-5" d="M8.58,33.48a.28.28,0,0,1,.25.09A.87.87,0,0,1,9,33.9s.08-.32.22-.38a.27.27,0,0,1,.29,0,.18.18,0,0,1,.13.24s0,.18-.4.44h0s.38-.21.55,0,.12.31,0,.37a.74.74,0,0,1-.56,0s0,0,0,0,.2.31.08.48a.26.26,0,0,1-.38.06.52.52,0,0,1-.11-.48s0-.1,0-.06-.39.37-.6.18-.09-.51.08-.53a1,1,0,0,1,.37,0s0,0,0,0-.56-.32-.38-.54C8.27,33.65,8.31,33.54,8.58,33.48Z"/><path class="cls-4" d="M8.83,34s-.19.07-.17.23.15.3.29.28.27-.17.25-.26S9.15,34,8.83,34Z"/><path class="cls-3" d="M12.14,29.59a.42.42,0,0,1,.39.14,1.25,1.25,0,0,1,.23.52s.13-.5.34-.6a.47.47,0,0,1,.46,0,.3.3,0,0,1,.21.39c0,.07,0,.27-.63.69,0,0,0,0,0,0s.59-.32.87-.05.18.5,0,.6a1.33,1.33,0,0,1-.89-.05s0,0,0,0,.31.51.13.77a.41.41,0,0,1-.6.1c-.17-.1-.24-.48-.18-.76,0,0,0-.16,0-.11s-.63.6-1,.3-.15-.82.13-.84a1.38,1.38,0,0,1,.59,0s.08,0,0,0-.89-.52-.6-.86C11.65,29.86,11.71,29.68,12.14,29.59Z"/><path class="cls-4" d="M12.54,30.44s-.3.12-.27.37.23.49.45.44.43-.26.39-.4A.44.44,0,0,0,12.54,30.44Z"/><path class="cls-5" d="M17.21,31a.27.27,0,0,1,.25.09.87.87,0,0,1,.14.33s.08-.32.22-.38.14-.05.29,0a.18.18,0,0,1,.13.24s0,.17-.4.44h0s.37-.2.54,0,.12.31,0,.38a.88.88,0,0,1-.57,0s0,0,0,0,.2.32.08.49a.25.25,0,0,1-.37.06c-.11-.06-.15-.3-.12-.48,0,0,0-.1,0-.07s-.39.38-.6.19-.09-.52.08-.53a.84.84,0,0,1,.37,0s.06,0,0,0-.56-.32-.38-.54C16.9,31.17,16.94,31.06,17.21,31Z"/><path class="cls-4" d="M17.47,31.54s-.2.08-.18.23.15.31.29.28.27-.17.25-.25S17.78,31.49,17.47,31.54Z"/><path class="cls-3" d="M1.54,33.85a.44.44,0,0,1,.4.14,1.41,1.41,0,0,1,.23.52s.13-.5.34-.6.22-.08.46,0a.3.3,0,0,1,.21.39c0,.07,0,.28-.63.69,0,0,0,0,0,0s.59-.32.87-.05.18.5,0,.6a1.3,1.3,0,0,1-.9,0s0,0,0,0,.32.51.13.78a.41.41,0,0,1-.6.09c-.16-.09-.23-.48-.17-.76,0,0,.05-.16,0-.11s-.62.6-1,.3S.78,35,1.06,35a1.34,1.34,0,0,1,.58,0s.09,0,0,0-.88-.52-.59-.86C1.06,34.12,1.12,33.94,1.54,33.85Z"/><path class="cls-4" d="M2,34.7s-.31.12-.27.37.23.49.45.44.42-.26.39-.4A.44.44,0,0,0,2,34.7Z"/><path class="cls-5" d="M.8,15.74a.26.26,0,0,1,.24.09.79.79,0,0,1,.15.33s.08-.32.21-.38a.29.29,0,0,1,.3,0,.21.21,0,0,1,.13.25s0,.17-.4.43c0,0,0,0,0,0s.37-.2.55,0,.11.31,0,.37a.78.78,0,0,1-.56,0s0,0,0,0,.2.32.08.49a.26.26,0,0,1-.38.06C1,17.28,1,17,1,16.86c0,0,0-.11,0-.07s-.4.38-.61.19-.09-.52.09-.54a1,1,0,0,1,.37,0s.05,0,0,0-.56-.32-.37-.54C.49,15.91.53,15.8.8,15.74Z"/><path class="cls-4" d="M1.05,16.28s-.19.07-.17.23.14.31.28.28.27-.17.25-.25A.28.28,0,0,0,1.05,16.28Z"/><path class="cls-5" d="M20,39.83a.28.28,0,0,1,.25.09.87.87,0,0,1,.14.33s.08-.32.22-.38.14,0,.29,0a.18.18,0,0,1,.13.24s0,.17-.4.44h0s.38-.2.55,0,.12.31,0,.38a.85.85,0,0,1-.56,0s0,0,0,0,.2.32.08.49a.26.26,0,0,1-.38.06.52.52,0,0,1-.11-.48s0-.1,0-.07-.39.38-.6.19-.09-.52.08-.53a.77.77,0,0,1,.37,0s.05,0,0,0-.56-.32-.38-.53C19.71,40,19.75,39.89,20,39.83Z"/><path class="cls-4" d="M20.27,40.37s-.19.08-.17.23.15.31.29.28.27-.17.24-.25S20.59,40.32,20.27,40.37Z"/><path class="cls-3" d="M10.45,42.06a.44.44,0,0,1,.4.14,1.41,1.41,0,0,1,.23.52s.13-.5.34-.6.22-.08.46,0a.31.31,0,0,1,.21.39c0,.07,0,.27-.63.69,0,0,0,0,0,0s.59-.32.87-.05.18.5,0,.6a1.3,1.3,0,0,1-.9,0s0,0,0,0,.32.51.13.78a.41.41,0,0,1-.6.09c-.16-.09-.23-.48-.17-.76,0,0,0-.16,0-.11s-.62.6-1,.3-.14-.82.13-.84a1.39,1.39,0,0,1,.59,0s.09,0,0,0-.89-.52-.59-.86C10,42.33,10,42.15,10.45,42.06Z"/><path class="cls-4" d="M10.86,42.91s-.31.12-.27.37.23.49.45.44.42-.26.39-.4A.44.44,0,0,0,10.86,42.91Z"/><path class="cls-5" d="M12.89,36a.27.27,0,0,1,.25.09.79.79,0,0,1,.15.33s.08-.32.21-.38a.28.28,0,0,1,.29,0,.2.2,0,0,1,.14.24s0,.18-.4.44c0,0,0,0,0,0s.37-.2.55,0,.11.31,0,.37a.74.74,0,0,1-.56,0s0,0,0,0,.2.31.09.48a.26.26,0,0,1-.38.06c-.11-.05-.15-.3-.11-.48,0,0,0-.1,0-.06s-.4.38-.61.18a.31.31,0,0,1,.09-.53,1,1,0,0,1,.37,0s0,0,0,0-.56-.32-.37-.54C12.59,36.18,12.62,36.07,12.89,36Z"/><path class="cls-4" d="M13.15,36.55s-.19.07-.17.23.14.31.28.28.27-.17.25-.26A.27.27,0,0,0,13.15,36.55Z"/><path class="cls-3" d="M21.21,44.69a.43.43,0,0,1,.39.13,1.27,1.27,0,0,1,.23.53s.13-.51.34-.6.23-.09.47,0a.3.3,0,0,1,.21.38c-.05.07,0,.28-.64.7h0s.59-.32.86,0,.19.49,0,.59a1.35,1.35,0,0,1-.9,0s0,0,0,0,.32.51.13.78a.4.4,0,0,1-.6.09c-.17-.09-.24-.47-.18-.76,0,0,.06-.16,0-.1s-.63.6-1,.29-.14-.82.13-.84a1.31,1.31,0,0,1,.59,0s.08,0,0,0-.89-.51-.6-.85C20.72,45,20.78,44.77,21.21,44.69Z"/><path class="cls-4" d="M21.62,45.54s-.31.12-.28.36.23.49.45.45.43-.27.4-.4S22.11,45.46,21.62,45.54Z"/><path class="cls-5" d="M12.58,50.31a.27.27,0,0,1,.25.09.87.87,0,0,1,.14.33s.09-.32.22-.38.14-.05.29,0a.18.18,0,0,1,.13.24s0,.17-.4.44h0s.37-.2.54,0,.12.31,0,.38a.88.88,0,0,1-.57,0s0,0,0,0,.2.32.08.49a.25.25,0,0,1-.37.06c-.11-.06-.15-.3-.12-.48,0,0,0-.1,0-.07s-.4.38-.61.19-.09-.52.08-.53a.85.85,0,0,1,.37,0s.06,0,0,0-.56-.32-.38-.54C12.27,50.48,12.31,50.37,12.58,50.31Z"/><path class="cls-4" d="M12.84,50.85s-.2.08-.18.23.15.31.29.28.27-.17.25-.25A.28.28,0,0,0,12.84,50.85Z"/><path class="cls-3" d="M17.36,77.66a.45.45,0,0,1,.4.13,1.34,1.34,0,0,1,.22.53s.13-.51.35-.6.22-.09.46,0a.3.3,0,0,1,.21.38c-.05.07,0,.28-.64.7h0s.59-.32.86,0,.19.49,0,.59a1.35,1.35,0,0,1-.9,0s0,0,0,0,.32.5.13.77a.4.4,0,0,1-.6.09c-.17-.09-.23-.47-.17-.76,0,0,.05-.16,0-.1s-.63.6-1,.29-.14-.82.13-.84a1.31,1.31,0,0,1,.59,0s.08,0,0,0-.89-.51-.59-.85C16.88,77.93,16.93,77.75,17.36,77.66Z"/><path class="cls-4" d="M17.77,78.51s-.31.12-.28.37.23.48.46.44.42-.27.39-.4S18.26,78.43,17.77,78.51Z"/><path class="cls-5" d="M13.4,54.27a.27.27,0,0,1,.25.09.87.87,0,0,1,.14.33s.09-.32.22-.38a.27.27,0,0,1,.29,0,.18.18,0,0,1,.13.24c0,.05,0,.18-.4.44a0,0,0,0,0,0,0s.37-.2.54,0,.12.31,0,.37a.8.8,0,0,1-.57,0s0,0,0,0,.2.32.08.49a.25.25,0,0,1-.37.06c-.11-.06-.15-.3-.12-.48,0,0,0-.11,0-.07s-.4.38-.61.18-.09-.51.08-.53a1,1,0,0,1,.37,0s.06,0,0,0-.56-.32-.38-.54C13.09,54.44,13.13,54.33,13.4,54.27Z"/><path class="cls-4" d="M13.66,54.81s-.2.07-.18.23.15.31.29.28.27-.17.25-.26A.27.27,0,0,0,13.66,54.81Z"/><path class="cls-5" d="M6.29,48.6a.28.28,0,0,1,.25.09.87.87,0,0,1,.14.33s.08-.31.22-.38.14,0,.29,0a.18.18,0,0,1,.13.24s0,.18-.4.44h0s.37-.2.55,0,.11.32,0,.38a.85.85,0,0,1-.56,0s0,0,0,0,.2.32.08.49a.26.26,0,0,1-.38.06.52.52,0,0,1-.11-.48s0-.1,0-.07-.39.38-.6.19-.09-.52.08-.53a.77.77,0,0,1,.37,0s.05,0,0,0S5.8,49,6,48.78C6,48.78,6,48.66,6.29,48.6Z"/><path class="cls-4" d="M6.54,49.14s-.19.08-.17.23.15.31.29.28.27-.17.24-.25S6.86,49.09,6.54,49.14Z"/><path class="cls-5" d="M21.17,49.85a.26.26,0,0,1,.25.08.79.79,0,0,1,.15.33s.08-.31.21-.38.14-.05.29,0a.18.18,0,0,1,.13.24c0,.05,0,.18-.39.44h0s.37-.2.54,0,.12.32,0,.38a.88.88,0,0,1-.57,0s0,0,0,0,.2.32.09.49a.26.26,0,0,1-.38.06c-.11-.06-.15-.3-.11-.48,0,0,0-.1,0-.07s-.4.38-.61.19-.09-.52.08-.53a.82.82,0,0,1,.38,0s.05,0,0,0-.56-.32-.37-.53C20.87,50,20.9,49.9,21.17,49.85Z"/><path class="cls-4" d="M21.43,50.38s-.19.08-.17.23.14.31.28.28.27-.16.25-.25A.28.28,0,0,0,21.43,50.38Z"/><path class="cls-3" d="M18.89,53.15a.43.43,0,0,1,.39.13,1.27,1.27,0,0,1,.23.53s.13-.51.34-.6.23-.09.47,0a.29.29,0,0,1,.2.38c0,.07,0,.28-.63.7h0s.59-.32.86,0,.19.49,0,.59a1.35,1.35,0,0,1-.9,0s0,0,0,0,.31.51.13.78a.4.4,0,0,1-.6.09c-.17-.09-.24-.47-.18-.76,0,0,.05-.16,0-.1s-.63.6-1,.29-.14-.82.13-.84a1.31,1.31,0,0,1,.59,0s.08,0,0,0-.89-.51-.6-.85C18.4,53.42,18.46,53.23,18.89,53.15Z"/><path class="cls-4" d="M19.3,54s-.31.12-.28.36.23.49.45.45.43-.27.4-.4S19.79,53.92,19.3,54Z"/><path class="cls-5" d="M1.28,31a.28.28,0,0,1,.25.09.87.87,0,0,1,.14.33s.08-.32.22-.38S2,31,2.18,31a.18.18,0,0,1,.13.24s0,.17-.4.44h0s.38-.2.55,0,.12.31,0,.38a.85.85,0,0,1-.56,0s0,0,0,0,.2.32.08.49a.26.26,0,0,1-.38.06.52.52,0,0,1-.11-.48s0-.1,0-.07-.39.38-.6.19-.09-.52.08-.53a.84.84,0,0,1,.37,0s0,0,0,0-.56-.32-.38-.54C1,31.17,1,31.06,1.28,31Z"/><path class="cls-4" d="M1.53,31.54s-.19.08-.17.23.15.31.29.28.27-.17.24-.25S1.85,31.49,1.53,31.54Z"/><path class="cls-3" d="M18.89,34.21a.42.42,0,0,1,.39.14,1.27,1.27,0,0,1,.23.53s.13-.51.34-.6.23-.09.47,0a.29.29,0,0,1,.2.38c0,.07,0,.28-.63.69h0s.59-.32.86,0,.19.49,0,.59a1.35,1.35,0,0,1-.9,0s0,0,0,0,.31.51.13.78a.4.4,0,0,1-.6.09c-.17-.09-.24-.47-.18-.76,0,0,.05-.16,0-.11s-.63.6-1,.3-.14-.82.13-.84a1.31,1.31,0,0,1,.59,0s.08,0,0,0-.89-.51-.6-.86C18.4,34.48,18.46,34.3,18.89,34.21Z"/><path class="cls-4" d="M19.3,35.07s-.31.12-.28.36.23.49.45.45.43-.27.4-.41A.44.44,0,0,0,19.3,35.07Z"/><path class="cls-5" d="M16.9,46.27a.28.28,0,0,1,.25.09.87.87,0,0,1,.14.33s.08-.32.22-.38.14-.05.29,0a.19.19,0,0,1,.13.24s0,.17-.4.44h0s.37-.2.55,0,.11.31,0,.38a.85.85,0,0,1-.56,0s0,0,0,0,.2.32.08.49a.26.26,0,0,1-.38.06.52.52,0,0,1-.11-.48s0-.1,0-.07-.39.38-.6.19-.09-.52.08-.53A.84.84,0,0,1,17,47s.05,0,0,0-.56-.32-.38-.54C16.59,46.44,16.63,46.33,16.9,46.27Z"/><path class="cls-4" d="M17.15,46.81S17,46.89,17,47s.15.31.29.28.26-.17.24-.25A.28.28,0,0,0,17.15,46.81Z"/><path class="cls-3" d="M3.36,46.81a.42.42,0,0,1,.39.14,1.41,1.41,0,0,1,.23.52s.13-.5.34-.6.23-.09.46,0a.3.3,0,0,1,.21.39c0,.07,0,.27-.63.69,0,0,0,0,0,0s.59-.32.87-.05.18.5,0,.6a1.33,1.33,0,0,1-.89,0s0,0,0,0,.32.5.14.77a.41.41,0,0,1-.6.1c-.17-.1-.24-.48-.18-.76,0,0,0-.16,0-.11s-.63.6-1,.3-.15-.82.13-.85a1.51,1.51,0,0,1,.59,0s.08,0,0,0-.89-.51-.6-.85C2.87,47.08,2.93,46.9,3.36,46.81Z"/><path class="cls-4" d="M3.76,47.66s-.31.12-.27.37.23.49.45.44.43-.27.39-.4A.44.44,0,0,0,3.76,47.66Z"/><path class="cls-3" d="M6.06,54.62a.42.42,0,0,1,.39.14,1.2,1.2,0,0,1,.23.52s.13-.5.34-.6.23-.09.46,0a.3.3,0,0,1,.21.38c0,.07,0,.28-.63.7h0s.59-.32.87,0,.18.49,0,.59a1.32,1.32,0,0,1-.89,0s0,0,0,0,.32.5.14.77a.41.41,0,0,1-.6.1c-.17-.1-.24-.48-.18-.77,0,0,0-.16,0-.1s-.63.6-1,.29-.15-.82.13-.84a1.51,1.51,0,0,1,.59,0s.08,0,0,0-.89-.51-.6-.85C5.57,54.89,5.63,54.71,6.06,54.62Z"/><path class="cls-4" d="M6.46,55.47s-.31.12-.27.37.23.48.45.44.43-.27.39-.4A.43.43,0,0,0,6.46,55.47Z"/><path class="cls-2" d="M39,31.55a1.65,1.65,0,0,0-.62-1.21,1.53,1.53,0,0,1,.7.85c.32.7.47-1,.09-1.39,0,0,.53.17.47,1.33a.45.45,0,0,0,.27-.45,1.7,1.7,0,0,1,.4-.83,3,3,0,0,0-.3,1.62"/><path class="cls-2" d="M46.66,43.88A1.68,1.68,0,0,0,46,42.66a1.57,1.57,0,0,1,.71.85c.31.71.46-1,.08-1.39,0,0,.53.18.47,1.33a.43.43,0,0,0,.27-.45,1.78,1.78,0,0,1,.41-.83,3,3,0,0,0-.3,1.62"/><path class="cls-2" d="M27.57,36.08A1.64,1.64,0,0,0,27,34.86a1.53,1.53,0,0,1,.7.86c.32.7.47-1,.09-1.39,0,0,.53.17.46,1.32a.44.44,0,0,0,.28-.45,1.71,1.71,0,0,1,.4-.82,3,3,0,0,0-.3,1.61"/><path class="cls-2" d="M34.2,43.65a1.66,1.66,0,0,0-.61-1.21,1.58,1.58,0,0,1,.7.85c.31.7.46-1,.09-1.39,0,0,.52.17.46,1.33a.46.46,0,0,0,.28-.45,1.7,1.7,0,0,1,.4-.83,3,3,0,0,0-.3,1.62"/><path class="cls-2" d="M51.56,55.88a1.65,1.65,0,0,0-.62-1.21,1.57,1.57,0,0,1,.71.85c.31.7.46-1,.08-1.39,0,0,.53.17.47,1.33a.45.45,0,0,0,.27-.45,1.8,1.8,0,0,1,.4-.83,3,3,0,0,0-.3,1.62"/><path class="cls-2" d="M31,53.7a1.68,1.68,0,0,0-.62-1.22,1.53,1.53,0,0,1,.7.85c.32.71.47-1,.09-1.39,0,0,.53.18.47,1.33a.43.43,0,0,0,.27-.45,1.7,1.7,0,0,1,.4-.83,3.05,3.05,0,0,0-.3,1.62"/><path class="cls-3" d="M25.91,29.37a.42.42,0,0,1,.39.14,1.27,1.27,0,0,1,.23.53s.13-.51.34-.61a.49.49,0,0,1,.47,0,.3.3,0,0,1,.2.39c0,.07,0,.28-.63.69a0,0,0,0,0,0,0s.59-.32.86-.05.19.5,0,.6a1.3,1.3,0,0,1-.9,0s0,0,0,0,.31.51.13.78a.4.4,0,0,1-.6.09c-.17-.09-.24-.47-.18-.76,0,0,0-.16,0-.11s-.63.6-1,.3-.14-.82.13-.84a1.38,1.38,0,0,1,.59,0s.08,0,0,0-.89-.52-.6-.86C25.42,29.64,25.48,29.46,25.91,29.37Z"/><path class="cls-4" d="M26.31,30.22s-.3.12-.27.37.23.49.45.44.43-.26.4-.4A.45.45,0,0,0,26.31,30.22Z"/><path class="cls-5" d="M37.4,38.16a.29.29,0,0,1,.25.08.88.88,0,0,1,.14.34s.08-.32.22-.38a.27.27,0,0,1,.29,0,.18.18,0,0,1,.13.24s0,.18-.4.44h0s.38-.2.55,0,.12.31,0,.37a.88.88,0,0,1-.57,0s0,0,0,0,.2.32.08.49a.26.26,0,0,1-.38.06.52.52,0,0,1-.11-.48s0-.1,0-.07-.39.38-.6.19-.09-.52.08-.53a1,1,0,0,1,.37,0s.06,0,0,0-.56-.33-.38-.54C37.09,38.33,37.13,38.21,37.4,38.16Z"/><path class="cls-4" d="M37.66,38.7s-.2.07-.18.23.15.3.29.28S38,39,38,39,38,38.65,37.66,38.7Z"/><path class="cls-5" d="M38.3,33.16a.28.28,0,0,1,.25.09.87.87,0,0,1,.14.33s.08-.32.22-.38.14-.05.29,0a.2.2,0,0,1,.13.25s0,.17-.4.44h0s.37-.2.55,0,.11.31,0,.38a.85.85,0,0,1-.56,0s0,0,0,0,.2.32.08.49a.26.26,0,0,1-.38.06.52.52,0,0,1-.11-.48s0-.1,0-.07-.39.38-.6.19-.09-.52.08-.53a.84.84,0,0,1,.37,0s0,0,0,0-.56-.32-.38-.54C38,33.33,38,33.22,38.3,33.16Z"/><path class="cls-4" d="M38.55,33.7s-.19.08-.17.23.15.31.29.28.26-.17.24-.25A.28.28,0,0,0,38.55,33.7Z"/><path class="cls-3" d="M41.86,29.27a.45.45,0,0,1,.39.14,1.43,1.43,0,0,1,.23.53s.13-.51.34-.6.23-.09.46,0a.29.29,0,0,1,.21.38c0,.07,0,.28-.63.69,0,0,0,0,0,0s.59-.32.87,0,.18.49,0,.59a1.32,1.32,0,0,1-.89,0s0,0,0,0,.32.51.13.78a.39.39,0,0,1-.59.09c-.17-.09-.24-.47-.18-.76,0,0,0-.16,0-.11s-.63.6-1,.3-.15-.82.13-.84a1.31,1.31,0,0,1,.59,0s.08,0,0,0-.88-.51-.59-.86C41.37,29.54,41.43,29.36,41.86,29.27Z"/><path class="cls-4" d="M42.26,30.13s-.31.12-.27.36.23.49.45.45.43-.27.39-.41S42.76,30.05,42.26,30.13Z"/><path class="cls-5" d="M46.93,30.69a.28.28,0,0,1,.25.09.81.81,0,0,1,.14.33s.08-.32.22-.38a.27.27,0,0,1,.29,0A.18.18,0,0,1,48,31c0,.05,0,.18-.4.44h0s.38-.2.55,0,.12.31,0,.37a.85.85,0,0,1-.56,0s0,0,0,0,.2.32.08.49a.26.26,0,0,1-.38.06.52.52,0,0,1-.11-.48s0-.1,0-.07-.39.38-.6.19-.09-.52.08-.53a1,1,0,0,1,.37,0s0,0,0,0-.56-.33-.38-.54C46.62,30.86,46.66,30.74,46.93,30.69Z"/><path class="cls-4" d="M47.18,31.23s-.19.07-.17.23.15.3.29.28.27-.17.24-.26S47.5,31.18,47.18,31.23Z"/><path class="cls-3" d="M31.26,33.54a.45.45,0,0,1,.4.13,1.34,1.34,0,0,1,.22.53s.13-.51.35-.6.22-.09.46,0a.3.3,0,0,1,.21.38c0,.07,0,.28-.63.7h0s.59-.32.86,0,.19.49,0,.59a1.35,1.35,0,0,1-.9,0s0,0,0,0,.32.51.13.78a.4.4,0,0,1-.6.09c-.17-.09-.23-.47-.17-.76,0,0,.05-.16,0-.1s-.63.6-1,.29-.14-.82.13-.84a1.31,1.31,0,0,1,.59,0s.09,0,0,0-.89-.51-.59-.85C30.78,33.81,30.84,33.62,31.26,33.54Z"/><path class="cls-4" d="M31.67,34.39s-.31.12-.28.36.23.49.46.45.42-.27.39-.4S32.16,34.31,31.67,34.39Z"/><path class="cls-5" d="M28.63,37.87a.26.26,0,0,1,.25.08.87.87,0,0,1,.14.33s.08-.31.22-.38.14,0,.29,0a.18.18,0,0,1,.13.24s0,.18-.4.44h0s.37-.2.54,0,.12.32,0,.38a.88.88,0,0,1-.57,0s0,0,0,0,.2.32.08.49a.26.26,0,0,1-.38.06c-.1-.06-.14-.3-.11-.48,0,0,0-.1,0-.07s-.39.38-.6.19-.09-.52.08-.53a.77.77,0,0,1,.37,0s.06,0,0,0-.56-.32-.38-.53C28.32,38,28.36,37.92,28.63,37.87Z"/><path class="cls-4" d="M28.89,38.4s-.2.08-.18.23.15.31.29.28.27-.16.25-.25S29.2,38.35,28.89,38.4Z"/><path class="cls-5" d="M49.74,39.52a.28.28,0,0,1,.25.09.81.81,0,0,1,.14.33s.08-.32.22-.38a.27.27,0,0,1,.29,0,.2.2,0,0,1,.13.24c0,.05,0,.18-.4.44h0s.37-.2.55,0,.11.31,0,.37a.85.85,0,0,1-.56,0s0,0,0,0,.2.31.08.48a.26.26,0,0,1-.38.06.52.52,0,0,1-.11-.48s0-.1,0-.06-.39.37-.6.18-.09-.52.08-.53a1,1,0,0,1,.37,0s.05,0,0,0-.56-.33-.38-.54C49.43,39.69,49.47,39.57,49.74,39.52Z"/><path class="cls-4" d="M50,40.06s-.19.07-.17.23.15.3.29.28.26-.17.24-.26A.27.27,0,0,0,50,40.06Z"/><path class="cls-3" d="M27.37,41.11a.42.42,0,0,1,.39.14,1.25,1.25,0,0,1,.23.52s.13-.5.34-.6.23-.09.47,0a.3.3,0,0,1,.21.38c-.05.08,0,.28-.64.7h0s.59-.31.86,0,.19.49,0,.59a1.35,1.35,0,0,1-.9,0s0,0,0,0,.32.5.13.77a.41.41,0,0,1-.6.1.78.78,0,0,1-.17-.76s.05-.17,0-.11-.63.6-1,.3-.14-.83.13-.85a1.51,1.51,0,0,1,.59,0s.08,0,0,0-.89-.51-.6-.85C26.88,41.38,26.94,41.2,27.37,41.11Z"/><path class="cls-4" d="M27.78,42s-.31.12-.28.37.23.48.46.44.42-.27.39-.4S28.27,41.88,27.78,42Z"/><path class="cls-5" d="M26.2,49.77a.27.27,0,0,1,.25.09.74.74,0,0,1,.15.33s.08-.32.21-.38a.28.28,0,0,1,.29,0,.18.18,0,0,1,.13.24c0,.05,0,.18-.39.44,0,0,0,0,0,0s.37-.21.54,0,.12.31,0,.37a.79.79,0,0,1-.56,0s0,0,0,0,.2.31.09.48a.26.26,0,0,1-.38.06c-.11-.06-.15-.3-.11-.48,0,0,0-.1,0-.06s-.4.37-.61.18a.31.31,0,0,1,.09-.53,1,1,0,0,1,.37,0s.05,0,0,0-.56-.33-.37-.54C25.9,49.94,25.93,49.82,26.2,49.77Z"/><path class="cls-4" d="M26.46,50.31s-.19.07-.17.23.14.3.28.28.27-.17.25-.26A.27.27,0,0,0,26.46,50.31Z"/><path class="cls-3" d="M40.17,41.74a.48.48,0,0,1,.4.14,1.34,1.34,0,0,1,.22.53s.13-.51.35-.6.22-.09.46,0a.3.3,0,0,1,.21.38c-.05.07,0,.28-.64.7h0s.59-.32.86,0,.19.49,0,.59a1.35,1.35,0,0,1-.9,0s0,0,0,0,.32.51.13.78a.4.4,0,0,1-.6.09c-.17-.09-.23-.47-.17-.76,0,0,0-.16,0-.1s-.63.59-1,.29-.14-.82.13-.84a1.31,1.31,0,0,1,.59,0s.08,0,0,0-.89-.51-.59-.85C39.69,42,39.74,41.83,40.17,41.74Z"/><path class="cls-4" d="M40.58,42.6s-.31.12-.28.36.23.49.46.45.42-.27.39-.4S41.07,42.52,40.58,42.6Z"/><path class="cls-5" d="M42.61,35.69a.27.27,0,0,1,.25.09,1,1,0,0,1,.15.33s.08-.32.21-.38.14,0,.29,0a.18.18,0,0,1,.13.24s0,.17-.39.44h0s.37-.2.54,0,.12.31,0,.38a.88.88,0,0,1-.57,0s0,0,0,0,.2.32.08.49a.25.25,0,0,1-.37.06c-.11-.06-.15-.3-.11-.48,0,0,0-.1,0-.07s-.4.38-.61.19-.09-.52.08-.53a.85.85,0,0,1,.37,0s.06,0,0,0-.56-.32-.37-.54C42.31,35.86,42.34,35.75,42.61,35.69Z"/><path class="cls-4" d="M42.87,36.23s-.2.08-.17.23.14.31.28.28.27-.17.25-.25A.28.28,0,0,0,42.87,36.23Z"/><path class="cls-3" d="M50.93,44.37a.42.42,0,0,1,.39.14,1.25,1.25,0,0,1,.23.52s.13-.5.34-.6.23-.09.46,0a.29.29,0,0,1,.21.38c0,.08,0,.28-.63.7h0s.58-.31.86,0,.18.49,0,.59a1.32,1.32,0,0,1-.89,0s0,0,0,0,.31.5.13.77a.41.41,0,0,1-.6.1c-.17-.1-.24-.48-.18-.76,0,0,0-.17,0-.11s-.63.6-1,.3-.14-.82.13-.85a1.51,1.51,0,0,1,.59,0s.08,0,0,0-.89-.51-.6-.85C50.44,44.64,50.5,44.46,50.93,44.37Z"/><path class="cls-4" d="M51.33,45.22s-.3.12-.27.37.23.48.45.44.43-.27.4-.4A.45.45,0,0,0,51.33,45.22Z"/><path class="cls-5" d="M42.3,50a.28.28,0,0,1,.25.09.81.81,0,0,1,.14.33s.08-.32.22-.38a.27.27,0,0,1,.29,0,.18.18,0,0,1,.13.24s0,.18-.4.44h0s.38-.2.55,0,.12.31,0,.37a.88.88,0,0,1-.57,0s0,0,0,0,.2.32.08.49a.26.26,0,0,1-.38.06.52.52,0,0,1-.11-.48s0-.1,0-.07-.39.38-.6.19-.09-.52.08-.53a1,1,0,0,1,.37,0s.06,0,0,0-.56-.33-.38-.54C42,50.17,42,50.05,42.3,50Z"/><path class="cls-4" d="M42.56,50.54s-.2.07-.18.23.15.3.29.28.27-.17.25-.26S42.87,50.49,42.56,50.54Z"/><path class="cls-3" d="M26.33,53.84a.44.44,0,0,1,.4.14,1.35,1.35,0,0,1,.23.52s.13-.5.34-.6.23-.09.46,0a.3.3,0,0,1,.21.38c0,.08,0,.28-.63.7h0s.59-.31.87,0,.18.49,0,.59a1.32,1.32,0,0,1-.89,0s0,0,0,0,.32.5.13.77a.4.4,0,0,1-.59.1c-.17-.1-.24-.48-.18-.76,0,0,0-.17,0-.11s-.62.6-1,.3-.14-.83.14-.85a1.47,1.47,0,0,1,.58,0s.09,0,0,0-.88-.51-.59-.85C25.85,54.11,25.91,53.93,26.33,53.84Z"/><path class="cls-4" d="M26.74,54.69s-.31.12-.27.37.23.48.45.44.43-.27.39-.4A.44.44,0,0,0,26.74,54.69Z"/><path class="cls-5" d="M43.12,54a.28.28,0,0,1,.25.09.87.87,0,0,1,.14.33s.08-.32.22-.38.14-.05.29,0a.18.18,0,0,1,.13.24s0,.17-.4.44h0s.38-.2.55,0,.12.31,0,.38a.88.88,0,0,1-.57,0s0,0,0,0,.2.32.08.49a.26.26,0,0,1-.38.06.52.52,0,0,1-.11-.48s0-.1,0-.07-.39.38-.6.19-.09-.52.08-.53a.84.84,0,0,1,.37,0s0,0,0,0-.56-.32-.38-.54C42.81,54.12,42.85,54,43.12,54Z"/><path class="cls-4" d="M43.38,54.49s-.2.08-.18.23.15.31.29.28.27-.17.25-.25S43.69,54.44,43.38,54.49Z"/><path class="cls-5" d="M36,48.29a.26.26,0,0,1,.24.09.79.79,0,0,1,.15.33s.08-.32.21-.38a.29.29,0,0,1,.3,0,.2.2,0,0,1,.13.24s0,.18-.4.44c0,0,0,0,0,0s.37-.21.55,0,.11.31,0,.37a.74.74,0,0,1-.56,0s0,0,0,0,.2.31.08.48a.26.26,0,0,1-.38.06c-.11-.06-.15-.3-.11-.48,0,0,0-.1,0-.06s-.4.37-.61.18A.31.31,0,0,1,35.7,49a1,1,0,0,1,.37,0s0,0,0,0-.55-.33-.37-.54C35.7,48.46,35.74,48.34,36,48.29Z"/><path class="cls-4" d="M36.26,48.83s-.19.07-.17.23.14.3.28.28.27-.17.25-.26A.27.27,0,0,0,36.26,48.83Z"/><path class="cls-5" d="M50.89,49.53a.27.27,0,0,1,.25.09.87.87,0,0,1,.14.33s.09-.32.22-.38a.27.27,0,0,1,.29,0,.18.18,0,0,1,.13.24c0,.05,0,.18-.4.44h0s.37-.21.54,0,.12.31,0,.37a.76.76,0,0,1-.57,0s0,0,0,0,.2.31.08.48a.25.25,0,0,1-.37.06c-.11-.06-.15-.3-.11-.48,0,0,0-.1,0-.06s-.4.37-.61.18-.09-.51.08-.53a1,1,0,0,1,.37,0s.06,0,0,0-.56-.32-.38-.54C50.58,49.7,50.62,49.59,50.89,49.53Z"/><path class="cls-4" d="M51.15,50.07s-.2.07-.18.23.15.3.29.28.27-.17.25-.26A.27.27,0,0,0,51.15,50.07Z"/><path class="cls-3" d="M48.61,52.83A.42.42,0,0,1,49,53a1.25,1.25,0,0,1,.23.52s.13-.5.34-.6.23-.09.46,0a.3.3,0,0,1,.21.38c0,.08,0,.28-.63.7h0s.58-.31.86,0,.18.49,0,.59a1.32,1.32,0,0,1-.89,0s0,0,0,0,.31.5.13.77a.41.41,0,0,1-.6.1c-.17-.1-.24-.48-.18-.76,0,0,0-.17,0-.11s-.63.6-1,.3-.15-.83.13-.85a1.51,1.51,0,0,1,.59,0s.08,0,0,0-.89-.51-.6-.85C48.12,53.1,48.18,52.92,48.61,52.83Z"/><path class="cls-4" d="M49,53.68s-.3.12-.27.37.23.48.45.44.43-.27.39-.4S49.51,53.61,49,53.68Z"/><path class="cls-5" d="M31,30.69a.28.28,0,0,1,.25.09.81.81,0,0,1,.14.33s.08-.32.22-.38a.27.27,0,0,1,.29,0A.19.19,0,0,1,32,31c0,.05,0,.18-.4.44h0s.37-.2.55,0,.11.31,0,.37a.85.85,0,0,1-.56,0s0,0,0,0,.2.32.08.49a.26.26,0,0,1-.38.06.52.52,0,0,1-.11-.48s0-.1,0-.07-.39.38-.6.19-.09-.52.08-.53a1,1,0,0,1,.37,0s.05,0,0,0-.56-.33-.38-.54C30.69,30.86,30.73,30.74,31,30.69Z"/><path class="cls-4" d="M31.25,31.23s-.19.07-.17.23.15.3.29.28.26-.17.24-.26A.27.27,0,0,0,31.25,31.23Z"/><path class="cls-3" d="M48.61,33.9A.42.42,0,0,1,49,34a1.25,1.25,0,0,1,.23.52s.13-.5.34-.6.23-.09.46,0a.3.3,0,0,1,.21.38c0,.08,0,.28-.63.7h0s.58-.31.86,0,.18.49,0,.59a1.32,1.32,0,0,1-.89,0s0,0,0,0,.31.5.13.77a.41.41,0,0,1-.6.1c-.17-.1-.24-.48-.18-.76,0,0,0-.17,0-.11s-.63.6-1,.3-.15-.83.13-.85a1.51,1.51,0,0,1,.59,0s.08,0,0,0-.89-.51-.6-.85C48.12,34.17,48.18,34,48.61,33.9Z"/><path class="cls-4" d="M49,34.75s-.3.12-.27.37.23.48.45.44.43-.27.39-.4A.43.43,0,0,0,49,34.75Z"/><path class="cls-5" d="M46.62,46a.26.26,0,0,1,.24.09.74.74,0,0,1,.15.33s.08-.32.21-.38a.29.29,0,0,1,.3,0,.2.2,0,0,1,.13.24c0,.05,0,.18-.4.44h0s.37-.2.55,0,.11.31,0,.37a.85.85,0,0,1-.56,0s0,0,0,0,.2.32.08.49a.26.26,0,0,1-.38.06c-.11-.06-.15-.3-.11-.48,0,0,0-.1,0-.07s-.4.38-.61.19-.09-.52.09-.53a1,1,0,0,1,.37,0s0,0,0,0-.56-.33-.37-.54C46.31,46.13,46.35,46,46.62,46Z"/><path class="cls-4" d="M46.87,46.5s-.19.07-.17.23.14.3.28.28.27-.17.25-.26A.27.27,0,0,0,46.87,46.5Z"/><path class="cls-3" d="M33.07,46.49a.44.44,0,0,1,.4.14,1.43,1.43,0,0,1,.23.53s.13-.51.34-.6a.45.45,0,0,1,.46,0,.3.3,0,0,1,.21.39c0,.07,0,.28-.63.69,0,0,0,0,0,0s.59-.32.87-.05.18.5,0,.6a1.27,1.27,0,0,1-.89,0s0,0,0,0,.32.51.13.78a.39.39,0,0,1-.59.09c-.17-.09-.24-.47-.18-.76,0,0,0-.16,0-.11s-.62.6-1,.3-.14-.82.14-.84a1.27,1.27,0,0,1,.58,0s.09,0,0,0-.88-.51-.59-.86C32.59,46.76,32.65,46.58,33.07,46.49Z"/><path class="cls-4" d="M33.48,47.35s-.31.12-.27.36.23.49.45.45.43-.27.39-.41A.43.43,0,0,0,33.48,47.35Z"/><path class="cls-3" d="M35.77,54.3a.44.44,0,0,1,.4.14,1.41,1.41,0,0,1,.23.52s.13-.5.34-.6a.45.45,0,0,1,.46,0,.3.3,0,0,1,.21.39c0,.07,0,.27-.63.69,0,0,0,0,0,0s.59-.32.87,0,.18.5,0,.6a1.33,1.33,0,0,1-.89-.05s0,0,0,0,.32.51.13.77a.4.4,0,0,1-.59.1c-.17-.1-.24-.48-.18-.76,0,0,0-.16,0-.11s-.63.6-1,.3-.14-.82.14-.84a1.34,1.34,0,0,1,.58,0s.09,0,0,0-.88-.52-.59-.86C35.29,54.57,35.35,54.39,35.77,54.3Z"/><path class="cls-4" d="M36.18,55.15s-.31.12-.27.37.23.49.45.44.43-.26.39-.4A.44.44,0,0,0,36.18,55.15Z"/><path class="cls-2" d="M68.37,32.34a1.69,1.69,0,0,0-.61-1.22,1.53,1.53,0,0,1,.7.86c.31.7.46-1,.09-1.4,0,0,.52.18.46,1.33a.44.44,0,0,0,.28-.45,1.76,1.76,0,0,1,.4-.83,3.05,3.05,0,0,0-.3,1.62"/><path class="cls-2" d="M76,44.66a1.62,1.62,0,0,0-.61-1.21,1.53,1.53,0,0,1,.7.85c.32.7.47-1,.09-1.39,0,0,.53.17.46,1.33a.46.46,0,0,0,.28-.46,1.71,1.71,0,0,1,.4-.82,3,3,0,0,0-.3,1.61"/><path class="cls-2" d="M56.94,36.87a1.67,1.67,0,0,0-.61-1.22,1.58,1.58,0,0,1,.7.85c.31.7.46-1,.09-1.39,0,0,.52.18.46,1.33a.46.46,0,0,0,.28-.45,1.7,1.7,0,0,1,.4-.83,3.05,3.05,0,0,0-.3,1.62"/><path class="cls-2" d="M63.57,44.44A1.68,1.68,0,0,0,63,43.22a1.53,1.53,0,0,1,.7.86c.32.7.47-1,.09-1.4,0,0,.53.18.47,1.33a.43.43,0,0,0,.27-.45,1.76,1.76,0,0,1,.4-.83,3.05,3.05,0,0,0-.3,1.62"/><path class="cls-2" d="M60.36,54.48a1.66,1.66,0,0,0-.61-1.21,1.53,1.53,0,0,1,.7.85c.31.7.46-1,.09-1.39,0,0,.52.17.46,1.33a.46.46,0,0,0,.28-.45,1.7,1.7,0,0,1,.4-.83,3,3,0,0,0-.3,1.62"/><path class="cls-3" d="M55.27,30.16a.44.44,0,0,1,.4.14,1.35,1.35,0,0,1,.23.52s.13-.5.34-.6.23-.09.46,0a.3.3,0,0,1,.21.38c0,.07,0,.28-.63.7h0s.59-.32.87,0,.18.49,0,.59a1.32,1.32,0,0,1-.89,0s0,0,0,0,.32.5.13.77a.4.4,0,0,1-.59.1c-.17-.1-.24-.48-.18-.77,0,0,0-.16,0-.1s-.63.6-1,.29-.15-.82.13-.84a1.47,1.47,0,0,1,.58,0s.09,0,0,0-.88-.51-.59-.85C54.79,30.43,54.85,30.25,55.27,30.16Z"/><path class="cls-4" d="M55.68,31s-.31.12-.27.37.23.48.45.44.43-.27.39-.4A.43.43,0,0,0,55.68,31Z"/><path class="cls-5" d="M66.76,38.94A.27.27,0,0,1,67,39a.79.79,0,0,1,.15.33s.08-.32.21-.38a.3.3,0,0,1,.29,0,.21.21,0,0,1,.14.25s0,.17-.4.44h0s.37-.2.55,0,.11.31,0,.38a.85.85,0,0,1-.56,0s0,0,0,0,.19.32.08.49a.26.26,0,0,1-.38.06c-.11-.06-.15-.3-.11-.48,0,0,0-.1,0-.07s-.4.38-.61.19-.09-.52.09-.53a.84.84,0,0,1,.37,0s0,0,0,0-.56-.32-.37-.54C66.46,39.11,66.5,39,66.76,38.94Z"/><path class="cls-4" d="M67,39.48s-.19.08-.17.23.14.31.28.28.27-.17.25-.25A.28.28,0,0,0,67,39.48Z"/><path class="cls-5" d="M67.66,34a.27.27,0,0,1,.25.09.74.74,0,0,1,.15.33s.08-.32.21-.38a.27.27,0,0,1,.29,0,.18.18,0,0,1,.13.24c0,.05,0,.18-.39.44h0s.37-.2.54,0,.12.31,0,.37a.88.88,0,0,1-.57,0s0,0,0,0,.2.32.09.49a.26.26,0,0,1-.38.06c-.11-.06-.15-.3-.11-.48,0,0,0-.1,0-.07s-.4.38-.61.19-.09-.52.08-.53a1,1,0,0,1,.38,0s0,0,0,0-.56-.33-.37-.54C67.36,34.12,67.39,34,67.66,34Z"/><path class="cls-4" d="M67.92,34.49s-.2.07-.17.23.14.3.28.28.27-.17.25-.26A.27.27,0,0,0,67.92,34.49Z"/><path class="cls-3" d="M71.22,30.06a.44.44,0,0,1,.4.14,1.32,1.32,0,0,1,.22.52s.13-.5.35-.6.22-.09.46,0a.31.31,0,0,1,.21.39c0,.07,0,.27-.64.69h0s.59-.32.86-.05.19.5,0,.6a1.36,1.36,0,0,1-.9-.05s0,0,0,0,.32.5.13.77a.41.41,0,0,1-.6.1c-.17-.1-.23-.48-.17-.76,0,0,0-.16,0-.11s-.63.6-1,.3-.14-.82.13-.85a1.51,1.51,0,0,1,.59,0s.09,0,0,0-.89-.51-.59-.85C70.74,30.33,70.8,30.15,71.22,30.06Z"/><path class="cls-4" d="M71.63,30.91s-.31.12-.28.37.23.49.46.44.42-.27.39-.4A.45.45,0,0,0,71.63,30.91Z"/><path class="cls-5" d="M76.29,31.47a.27.27,0,0,1,.25.09.79.79,0,0,1,.15.33s.08-.32.21-.38a.3.3,0,0,1,.29,0,.21.21,0,0,1,.14.25s0,.17-.4.44h0s.37-.2.55,0,.11.31,0,.38a.85.85,0,0,1-.56,0s0,0,0,0,.2.32.09.49a.26.26,0,0,1-.38.06c-.11-.06-.15-.3-.11-.48,0,0,0-.1,0-.07s-.4.38-.61.19-.09-.52.09-.53a.84.84,0,0,1,.37,0s0,0,0,0-.56-.32-.37-.54C76,31.64,76,31.53,76.29,31.47Z"/><path class="cls-4" d="M76.55,32s-.19.08-.17.23.14.31.28.28.27-.17.25-.25A.28.28,0,0,0,76.55,32Z"/><path class="cls-3" d="M60.63,34.32a.42.42,0,0,1,.39.14,1.25,1.25,0,0,1,.23.52s.13-.5.34-.6a.45.45,0,0,1,.46,0,.3.3,0,0,1,.21.39c0,.07,0,.27-.63.69,0,0,0,0,0,0s.59-.32.87-.05.18.5,0,.6a1.33,1.33,0,0,1-.89,0s0,0,0,0,.31.5.13.77a.41.41,0,0,1-.6.1c-.17-.1-.24-.48-.18-.76,0,0,.05-.16,0-.11s-.63.6-1,.3-.15-.82.13-.85a1.51,1.51,0,0,1,.59,0s.08,0,0,0-.89-.51-.6-.85C60.14,34.59,60.2,34.41,60.63,34.32Z"/><path class="cls-4" d="M61,35.17s-.3.12-.27.37.23.49.45.44.43-.26.39-.4A.44.44,0,0,0,61,35.17Z"/><path class="cls-5" d="M58,38.65a.26.26,0,0,1,.24.09.79.79,0,0,1,.15.33s.08-.32.21-.38a.29.29,0,0,1,.3,0,.21.21,0,0,1,.13.25s0,.17-.4.43c0,0,0,0,0,0s.37-.2.55,0,.11.31,0,.37a.78.78,0,0,1-.56,0s0,0,0,0,.2.32.08.49a.26.26,0,0,1-.38.06c-.11-.06-.15-.3-.11-.48,0,0,0-.11,0-.07s-.4.38-.61.19-.09-.52.09-.54a1,1,0,0,1,.37,0s0,0,0,0-.56-.32-.37-.54C57.69,38.82,57.73,38.71,58,38.65Z"/><path class="cls-4" d="M58.25,39.19s-.19.07-.17.23.14.31.28.28.27-.17.25-.25A.28.28,0,0,0,58.25,39.19Z"/><path class="cls-5" d="M79.1,40.3a.27.27,0,0,1,.25.09,1,1,0,0,1,.15.33s.08-.32.21-.38.14-.05.29,0a.18.18,0,0,1,.13.24s0,.17-.39.44h0s.37-.2.54,0,.12.31,0,.38a.88.88,0,0,1-.57,0s0,0,0,0,.2.32.08.49a.25.25,0,0,1-.37.06c-.11-.06-.15-.3-.11-.48,0,0,0-.1,0-.07s-.4.38-.61.19-.09-.52.08-.53a.89.89,0,0,1,.38,0s0,0,0,0-.56-.32-.37-.54C78.8,40.47,78.83,40.36,79.1,40.3Z"/><path class="cls-4" d="M79.36,40.84s-.2.08-.17.23.14.31.28.28.27-.17.25-.25A.28.28,0,0,0,79.36,40.84Z"/><path class="cls-3" d="M56.74,41.89a.42.42,0,0,1,.39.14,1.43,1.43,0,0,1,.23.53s.13-.51.34-.6a.45.45,0,0,1,.46,0,.3.3,0,0,1,.21.39c0,.07,0,.28-.63.69,0,0,0,0,0,0s.59-.32.87-.05.18.5,0,.6a1.27,1.27,0,0,1-.89,0s0,0,0,0,.32.51.14.78a.4.4,0,0,1-.6.09c-.17-.09-.24-.47-.18-.76,0,0,0-.16,0-.11s-.63.6-1,.3S56,43,56.25,43a1.31,1.31,0,0,1,.59,0s.08,0,0,0-.89-.51-.6-.86C56.25,42.16,56.31,42,56.74,41.89Z"/><path class="cls-4" d="M57.14,42.75s-.31.12-.27.36.23.49.45.45.43-.27.39-.41S57.64,42.67,57.14,42.75Z"/><path class="cls-5" d="M55.57,50.55a.28.28,0,0,1,.25.09A.87.87,0,0,1,56,51s.08-.32.22-.38.14-.05.29,0a.18.18,0,0,1,.13.24s0,.17-.4.44h0s.38-.2.55,0,.12.31,0,.38a.88.88,0,0,1-.57,0s0,0,0,0,.2.32.08.49a.26.26,0,0,1-.38.06.52.52,0,0,1-.11-.48s0-.1,0-.07-.39.38-.6.19-.09-.52.08-.53a.84.84,0,0,1,.37,0s0,0,0,0-.56-.32-.38-.54C55.26,50.72,55.3,50.61,55.57,50.55Z"/><path class="cls-4" d="M55.83,51.09s-.2.08-.18.23.15.31.29.28.27-.17.25-.25S56.14,51,55.83,51.09Z"/><path class="cls-3" d="M69.54,42.53a.42.42,0,0,1,.39.14,1.25,1.25,0,0,1,.23.52s.13-.5.34-.6a.45.45,0,0,1,.46,0,.3.3,0,0,1,.21.39c0,.07,0,.27-.63.69,0,0,0,0,0,0s.59-.32.87-.05.18.5,0,.6a1.33,1.33,0,0,1-.89,0s0,0,0,0,.31.5.13.77a.41.41,0,0,1-.6.1c-.17-.1-.24-.48-.18-.76,0,0,0-.16,0-.11s-.63.6-1,.3-.15-.82.13-.85a1.51,1.51,0,0,1,.59,0s.08,0,0,0-.89-.51-.6-.85C69.05,42.8,69.11,42.62,69.54,42.53Z"/><path class="cls-4" d="M69.94,43.38s-.3.12-.27.37.23.49.45.44.43-.26.39-.4A.44.44,0,0,0,69.94,43.38Z"/><path class="cls-5" d="M72,36.48a.28.28,0,0,1,.25.09.81.81,0,0,1,.14.33s.08-.32.22-.38a.27.27,0,0,1,.29,0,.18.18,0,0,1,.13.24s0,.18-.4.44h0s.38-.2.55,0,.12.31,0,.37a.85.85,0,0,1-.56,0s0,0,0,0,.2.31.08.48a.26.26,0,0,1-.38.06.52.52,0,0,1-.11-.48s0-.1,0-.06-.39.37-.6.18-.09-.52.08-.53a1,1,0,0,1,.37,0s0,0,0,0-.56-.33-.38-.54C71.67,36.65,71.71,36.53,72,36.48Z"/><path class="cls-4" d="M72.23,37s-.19.07-.17.23.15.3.29.28.27-.17.24-.26S72.55,37,72.23,37Z"/><path class="cls-5" d="M71.66,50.78a.27.27,0,0,1,.25.09.79.79,0,0,1,.15.33s.08-.32.21-.38a.3.3,0,0,1,.29,0,.21.21,0,0,1,.14.25s0,.17-.4.44h0s.37-.2.55,0,.11.31,0,.38a.85.85,0,0,1-.56,0s0,0,0,0,.2.32.09.49a.26.26,0,0,1-.38.06c-.11-.06-.15-.3-.11-.48,0,0,0-.1,0-.07s-.4.38-.61.19-.09-.52.09-.53a.84.84,0,0,1,.37,0s0,0,0,0-.56-.32-.37-.54C71.36,51,71.4,50.84,71.66,50.78Z"/><path class="cls-4" d="M71.92,51.32s-.19.08-.17.23.14.31.28.28.27-.17.25-.25A.28.28,0,0,0,71.92,51.32Z"/><path class="cls-3" d="M55.7,54.62a.42.42,0,0,1,.39.14,1.27,1.27,0,0,1,.23.53s.13-.51.34-.61a.49.49,0,0,1,.47,0,.3.3,0,0,1,.2.39c0,.07,0,.28-.63.69h0s.59-.32.86,0,.19.5,0,.6a1.3,1.3,0,0,1-.9-.05s0,0,0,0,.31.51.13.78a.4.4,0,0,1-.6.09c-.17-.09-.24-.47-.18-.76,0,0,.05-.16,0-.11s-.63.6-1,.3-.14-.82.13-.84a1.31,1.31,0,0,1,.59,0s.08,0,0,0-.89-.51-.6-.86C55.21,54.89,55.27,54.71,55.7,54.62Z"/><path class="cls-4" d="M56.11,55.48s-.31.11-.28.36.23.49.45.45.43-.27.4-.41A.44.44,0,0,0,56.11,55.48Z"/><path class="cls-5" d="M72.48,54.74a.27.27,0,0,1,.25.09.79.79,0,0,1,.15.33s.08-.32.21-.38a.28.28,0,0,1,.29,0,.2.2,0,0,1,.14.24c0,.05,0,.18-.4.44,0,0,0,0,0,0s.37-.21.55,0,.11.31,0,.37a.74.74,0,0,1-.56,0s0,0,0,0,.2.31.09.48a.26.26,0,0,1-.38.06c-.11-.06-.15-.3-.11-.48,0,0,0-.1,0-.06s-.4.37-.61.18a.31.31,0,0,1,.09-.53,1,1,0,0,1,.37,0s0,0,0,0-.56-.32-.37-.54C72.18,54.91,72.22,54.8,72.48,54.74Z"/><path class="cls-4" d="M72.74,55.28s-.19.07-.17.23.14.3.28.28.27-.17.25-.26A.27.27,0,0,0,72.74,55.28Z"/><path class="cls-5" d="M65.37,49.07a.27.27,0,0,1,.25.09.87.87,0,0,1,.14.33s.09-.32.22-.38.14,0,.29,0a.18.18,0,0,1,.13.24s0,.17-.4.44h0s.37-.2.54,0,.12.31,0,.38a.88.88,0,0,1-.57,0s0,0,0,0,.2.32.08.49a.25.25,0,0,1-.37.06c-.11-.06-.15-.3-.11-.48,0,0,0-.1,0-.07s-.4.38-.61.19-.09-.52.08-.53a.85.85,0,0,1,.37,0s.06,0,0,0-.56-.32-.38-.54C65.06,49.24,65.1,49.13,65.37,49.07Z"/><path class="cls-4" d="M65.63,49.61s-.2.08-.17.23.14.31.28.28S66,50,66,49.87A.28.28,0,0,0,65.63,49.61Z"/><path class="cls-3" d="M78,53.61a.44.44,0,0,1,.4.14,1.43,1.43,0,0,1,.23.53s.13-.51.34-.6.22-.09.46,0a.29.29,0,0,1,.21.38c0,.07,0,.28-.63.69,0,0,0,0,0,0s.59-.32.87,0,.18.49,0,.59a1.35,1.35,0,0,1-.9,0s0,0,0,0,.32.51.13.78a.4.4,0,0,1-.6.09c-.16-.09-.23-.47-.17-.76,0,0,0-.16,0-.11s-.62.6-1,.3-.14-.82.14-.84a1.27,1.27,0,0,1,.58,0s.09,0,0,0-.88-.51-.59-.86C77.49,53.88,77.55,53.7,78,53.61Z"/><path class="cls-4" d="M78.38,54.47s-.31.12-.27.36.23.49.45.45S79,55,79,54.87A.43.43,0,0,0,78.38,54.47Z"/><path class="cls-5" d="M60.36,31.47a.27.27,0,0,1,.25.09.79.79,0,0,1,.15.33s.08-.32.21-.38.14-.05.29,0a.19.19,0,0,1,.13.25s0,.17-.39.44h0s.37-.2.54,0,.12.31,0,.38a.88.88,0,0,1-.57,0s0,0,0,0,.2.32.08.49a.25.25,0,0,1-.37.06c-.11-.06-.15-.3-.11-.48,0,0,0-.1,0-.07s-.4.38-.61.19-.09-.52.08-.53a.89.89,0,0,1,.38,0s0,0,0,0-.56-.32-.37-.54C60.06,31.64,60.09,31.53,60.36,31.47Z"/><path class="cls-4" d="M60.62,32s-.2.08-.17.23.14.31.28.28.27-.17.25-.25A.28.28,0,0,0,60.62,32Z"/><path class="cls-3" d="M78,34.68a.44.44,0,0,1,.4.14,1.43,1.43,0,0,1,.23.53s.13-.51.34-.6.22-.09.46,0a.3.3,0,0,1,.21.39c0,.07,0,.28-.63.69,0,0,0,0,0,0s.59-.32.87,0,.18.5,0,.6a1.3,1.3,0,0,1-.9,0s0,0,0,0,.32.51.13.78a.4.4,0,0,1-.6.09c-.16-.09-.23-.47-.17-.76,0,0,0-.16,0-.11s-.62.6-1,.3-.14-.82.14-.84a1.27,1.27,0,0,1,.58,0s.09,0,0,0-.88-.51-.59-.86C77.49,35,77.55,34.77,78,34.68Z"/><path class="cls-4" d="M78.38,35.54s-.31.12-.27.36.23.49.45.45.42-.27.39-.41A.43.43,0,0,0,78.38,35.54Z"/><path class="cls-5" d="M76,46.74a.27.27,0,0,1,.25.09.87.87,0,0,1,.14.33s.09-.32.22-.38.14-.05.29,0A.18.18,0,0,1,77,47s0,.17-.4.44h0s.37-.2.54,0,.12.31,0,.38a.88.88,0,0,1-.57,0s0,0,0,0,.2.32.08.49a.25.25,0,0,1-.37.06c-.11-.06-.15-.3-.12-.48,0,0,0-.1,0-.07s-.4.38-.61.19-.09-.52.08-.53a.85.85,0,0,1,.37,0s.06,0,0,0-.56-.32-.38-.54C75.67,46.91,75.71,46.8,76,46.74Z"/><path class="cls-4" d="M76.24,47.28s-.2.08-.18.23.15.31.29.28.27-.17.25-.25A.28.28,0,0,0,76.24,47.28Z"/><path class="cls-3" d="M62.44,47.28a.42.42,0,0,1,.39.14,1.25,1.25,0,0,1,.23.52s.13-.5.34-.6.23-.09.47,0a.3.3,0,0,1,.21.38c0,.08,0,.28-.64.7,0,0,0,0,0,0s.59-.31.86,0,.19.49,0,.59a1.35,1.35,0,0,1-.9,0s0,0,0,0,.32.5.13.77a.41.41,0,0,1-.6.1c-.17-.1-.24-.48-.18-.76,0,0,.06-.17,0-.11s-.63.6-1,.3-.14-.83.13-.85a1.51,1.51,0,0,1,.59,0s.08,0,0,0-.89-.51-.6-.85C62,47.55,62,47.37,62.44,47.28Z"/><path class="cls-4" d="M62.85,48.13s-.31.12-.28.37.23.48.45.44.43-.27.4-.4S63.34,48.05,62.85,48.13Z"/><path class="cls-3" d="M65.14,55.09a.43.43,0,0,1,.39.13,1.27,1.27,0,0,1,.23.53s.13-.51.34-.6.23-.09.47,0a.3.3,0,0,1,.21.38c0,.07,0,.28-.64.7h0s.59-.32.86,0,.19.49,0,.59a1.35,1.35,0,0,1-.9,0s0,0,0,0,.32.5.13.77a.4.4,0,0,1-.6.09c-.17-.09-.24-.47-.17-.76,0,0,0-.16,0-.1s-.63.6-1,.29-.14-.82.13-.84a1.31,1.31,0,0,1,.59,0s.08,0,0,0-.89-.51-.6-.85C64.65,55.36,64.71,55.18,65.14,55.09Z"/><path class="cls-4" d="M65.55,55.94s-.31.12-.28.37.23.48.45.44.43-.27.4-.4S66,55.86,65.55,55.94Z"/><path class="cls-2" d="M14.16,60a1.66,1.66,0,0,0-.62-1.22,1.57,1.57,0,0,1,.71.85c.31.7.46-1,.08-1.39,0,0,.53.18.47,1.33a.45.45,0,0,0,.27-.45,1.8,1.8,0,0,1,.4-.83,3.05,3.05,0,0,0-.3,1.62"/><path class="cls-2" d="M21.81,72.28a1.69,1.69,0,0,0-.61-1.22,1.58,1.58,0,0,1,.7.85c.31.71.46-1,.09-1.39,0,0,.52.18.46,1.33a.45.45,0,0,0,.28-.45,1.7,1.7,0,0,1,.4-.83,3.05,3.05,0,0,0-.3,1.62"/><path class="cls-2" d="M2.73,64.48a1.68,1.68,0,0,0-.62-1.22,1.59,1.59,0,0,1,.7.86c.32.7.47-1,.09-1.39,0,0,.53.17.47,1.32a.43.43,0,0,0,.27-.45,1.71,1.71,0,0,1,.4-.82,3,3,0,0,0-.3,1.61"/><path class="cls-2" d="M9.35,72.05a1.66,1.66,0,0,0-.61-1.21,1.53,1.53,0,0,1,.7.85c.31.7.46-1,.09-1.39,0,0,.52.17.46,1.33a.46.46,0,0,0,.28-.45,1.7,1.7,0,0,1,.4-.83,3,3,0,0,0-.3,1.62"/><path class="cls-2" d="M5.84,80.07a1.68,1.68,0,0,0-.62-1.22,1.53,1.53,0,0,1,.7.85c.32.71.47-1,.09-1.39,0,0,.53.18.46,1.33a.44.44,0,0,0,.28-.45,1.7,1.7,0,0,1,.4-.83A3.05,3.05,0,0,0,6.85,80"/><path class="cls-3" d="M1.06,57.77a.42.42,0,0,1,.39.14,1.27,1.27,0,0,1,.23.53s.13-.51.34-.61a.49.49,0,0,1,.47,0,.31.31,0,0,1,.21.39c-.05.07,0,.28-.64.69h0s.59-.32.86,0,.19.5,0,.6a1.3,1.3,0,0,1-.9-.05s0,0,0,0,.32.51.13.78a.4.4,0,0,1-.6.09c-.17-.09-.24-.47-.17-.76,0,0,.05-.16,0-.11s-.63.6-1,.3-.14-.82.13-.84a1.31,1.31,0,0,1,.59,0s.08,0,0,0S.28,58.38.57,58C.57,58,.63,57.86,1.06,57.77Z"/><path class="cls-4" d="M1.47,58.63s-.31.11-.28.36.23.49.45.45.43-.27.4-.41A.44.44,0,0,0,1.47,58.63Z"/><path class="cls-5" d="M12.55,66.56a.27.27,0,0,1,.25.09.81.81,0,0,1,.14.33s.09-.32.22-.38a.27.27,0,0,1,.29,0,.18.18,0,0,1,.13.24s0,.18-.4.44h0s.37-.2.54,0,.12.31,0,.37a.88.88,0,0,1-.57,0s0,0,0,0,.2.32.08.49a.25.25,0,0,1-.37.06c-.11-.06-.15-.3-.12-.48,0,0,0-.1,0-.06s-.4.37-.61.18-.09-.52.08-.53a1,1,0,0,1,.37,0s.06,0,0,0-.56-.33-.38-.54C12.24,66.73,12.28,66.61,12.55,66.56Z"/><path class="cls-4" d="M12.81,67.1s-.2.07-.18.23.15.3.29.28.27-.17.25-.26A.27.27,0,0,0,12.81,67.1Z"/><path class="cls-5" d="M13.45,61.56a.28.28,0,0,1,.25.09.87.87,0,0,1,.14.33s.08-.32.22-.38.14-.05.29,0a.18.18,0,0,1,.13.24s0,.17-.4.44h0s.38-.2.55,0,.12.31,0,.38a.85.85,0,0,1-.56,0s0,0,0,0,.2.32.08.49a.26.26,0,0,1-.38.06.52.52,0,0,1-.11-.48s0-.1,0-.07-.39.38-.6.19-.09-.52.08-.53a.84.84,0,0,1,.37,0s.05,0,0,0-.56-.32-.38-.54C13.14,61.73,13.18,61.62,13.45,61.56Z"/><path class="cls-4" d="M13.7,62.1s-.19.08-.17.23.15.31.29.28.27-.17.24-.25S14,62.05,13.7,62.1Z"/><path class="cls-3" d="M17,57.68a.43.43,0,0,1,.39.13,1.27,1.27,0,0,1,.23.53s.13-.51.34-.6.23-.09.46,0a.29.29,0,0,1,.21.38c0,.07,0,.28-.63.7h0s.59-.32.87,0,.18.49,0,.59a1.32,1.32,0,0,1-.89,0s0,0,0,0,.31.51.13.78a.4.4,0,0,1-.6.09c-.17-.09-.24-.47-.18-.76,0,0,.05-.16,0-.1s-.63.6-1,.29-.15-.82.13-.84a1.31,1.31,0,0,1,.59,0s.08,0,0,0-.89-.51-.6-.85C16.52,58,16.58,57.76,17,57.68Z"/><path class="cls-4" d="M17.41,58.53s-.3.12-.27.36.23.49.45.45.43-.27.39-.4A.43.43,0,0,0,17.41,58.53Z"/><path class="cls-5" d="M22.08,59.09a.28.28,0,0,1,.25.09.81.81,0,0,1,.14.33s.08-.32.22-.38a.27.27,0,0,1,.29,0,.18.18,0,0,1,.13.24s0,.18-.4.44h0s.38-.2.55,0,.12.31,0,.37a.88.88,0,0,1-.57,0s0,0,0,0,.2.32.08.49a.26.26,0,0,1-.38.06.52.52,0,0,1-.11-.48s0-.1,0-.06-.39.37-.6.18-.09-.52.08-.53a1,1,0,0,1,.37,0s.05,0,0,0-.56-.33-.38-.54C21.77,59.26,21.81,59.14,22.08,59.09Z"/><path class="cls-4" d="M22.34,59.63s-.2.07-.18.23.15.3.29.28.27-.17.25-.26S22.65,59.58,22.34,59.63Z"/><path class="cls-3" d="M6.41,61.94a.45.45,0,0,1,.4.13A1.43,1.43,0,0,1,7,62.6s.13-.51.34-.6.22-.09.46,0a.3.3,0,0,1,.21.38c0,.07,0,.28-.63.7h0s.59-.32.87,0,.18.49,0,.59a1.35,1.35,0,0,1-.9,0s0,0,0,0,.32.5.13.77a.4.4,0,0,1-.6.09c-.16-.09-.23-.47-.17-.76,0,0,.05-.16,0-.1s-.63.6-1,.29-.14-.82.13-.84a1.32,1.32,0,0,1,.59,0s.09,0,0,0-.89-.51-.59-.85C5.93,62.21,6,62,6.41,61.94Z"/><path class="cls-4" d="M6.82,62.79s-.31.12-.27.37.23.48.45.44.42-.27.39-.4A.44.44,0,0,0,6.82,62.79Z"/><path class="cls-5" d="M3.78,66.27a.26.26,0,0,1,.25.08.87.87,0,0,1,.14.33s.09-.31.22-.38.14,0,.29,0a.18.18,0,0,1,.13.24s0,.18-.4.44h0s.37-.2.54,0,.12.32,0,.38a.88.88,0,0,1-.57,0s0,0,0,0,.2.32.08.49a.25.25,0,0,1-.37.06C4,67.8,4,67.56,4,67.38c0,0,0-.1,0-.07s-.4.38-.61.19S3.3,67,3.47,67a.77.77,0,0,1,.37,0s.06,0,0,0-.56-.33-.38-.54C3.47,66.44,3.51,66.32,3.78,66.27Z"/><path class="cls-4" d="M4,66.8s-.2.08-.18.24.15.3.29.27.27-.16.25-.25A.28.28,0,0,0,4,66.8Z"/><path class="cls-5" d="M24.89,67.92a.28.28,0,0,1,.25.09.87.87,0,0,1,.14.33s.08-.32.22-.38a.27.27,0,0,1,.29,0,.18.18,0,0,1,.13.24s0,.18-.4.44h0s.37-.21.55,0,.11.31,0,.37a.74.74,0,0,1-.56,0s0,0,0,0,.2.31.08.48a.26.26,0,0,1-.38.06.52.52,0,0,1-.11-.48s0-.1,0-.06-.39.37-.6.18-.09-.51.08-.53a1,1,0,0,1,.37,0s.05,0,0,0-.56-.32-.38-.54C24.58,68.09,24.62,68,24.89,67.92Z"/><path class="cls-4" d="M25.14,68.46s-.19.07-.17.23.15.3.29.28.27-.17.24-.26S25.46,68.41,25.14,68.46Z"/><path class="cls-3" d="M2.52,69.51a.44.44,0,0,1,.4.14,1.32,1.32,0,0,1,.22.52s.13-.5.35-.6.22-.09.46,0a.3.3,0,0,1,.21.38c0,.08,0,.28-.64.7,0,0,0,0,0,0s.59-.31.86,0,.19.49,0,.59a1.35,1.35,0,0,1-.9,0s0,0,0,0,.32.5.13.77a.41.41,0,0,1-.6.1c-.17-.1-.23-.48-.17-.76,0,0,.05-.17,0-.11s-.63.6-1,.3-.14-.83.13-.85a1.51,1.51,0,0,1,.59,0s.08,0,0,0-.89-.51-.59-.85C2,69.78,2.09,69.6,2.52,69.51Z"/><path class="cls-4" d="M2.93,70.36s-.31.12-.28.37.23.48.46.44.42-.27.39-.4A.44.44,0,0,0,2.93,70.36Z"/><path class="cls-5" d="M1.35,78.17a.27.27,0,0,1,.25.09.79.79,0,0,1,.15.33s.08-.32.21-.38a.28.28,0,0,1,.29,0,.2.2,0,0,1,.14.24s0,.18-.4.44c0,0,0,0,0,0s.37-.21.55,0,.11.31,0,.37a.74.74,0,0,1-.56,0s0,0,0,0,.2.31.09.48a.26.26,0,0,1-.38.06c-.11-.06-.15-.3-.11-.48,0,0,0-.1,0-.06s-.4.37-.61.18a.31.31,0,0,1,.09-.53,1,1,0,0,1,.37,0s.05,0,0,0-.56-.32-.37-.54C1.05,78.34,1.09,78.23,1.35,78.17Z"/><path class="cls-4" d="M1.61,78.71s-.19.07-.17.23.14.3.28.28S2,79.05,2,79A.27.27,0,0,0,1.61,78.71Z"/><path class="cls-3" d="M15.32,70.15a.45.45,0,0,1,.4.13,1.34,1.34,0,0,1,.22.53s.13-.51.35-.6.22-.09.46,0a.3.3,0,0,1,.21.38c0,.07,0,.28-.63.7h0s.59-.32.86,0,.19.49,0,.59a1.35,1.35,0,0,1-.9,0s0,0,0,0,.32.5.13.77a.4.4,0,0,1-.6.09c-.17-.09-.23-.47-.17-.76,0,0,.05-.16,0-.1s-.63.6-1,.29-.14-.82.13-.84a1.31,1.31,0,0,1,.59,0s.09,0,0,0-.89-.51-.59-.85C14.84,70.42,14.9,70.23,15.32,70.15Z"/><path class="cls-4" d="M15.73,71s-.31.12-.28.36.23.49.46.45.42-.27.39-.4S16.22,70.92,15.73,71Z"/><path class="cls-5" d="M17.76,64.09a.27.27,0,0,1,.25.09.79.79,0,0,1,.15.33s.08-.32.21-.38.14,0,.29,0a.18.18,0,0,1,.13.24s0,.17-.39.44h0s.37-.2.54,0,.12.31,0,.38a.88.88,0,0,1-.57,0s0,0,0,0,.2.32.09.49a.26.26,0,0,1-.38.06c-.11-.06-.15-.3-.11-.48,0,0,0-.1,0-.07s-.4.38-.61.19-.09-.52.09-.53a.84.84,0,0,1,.37,0s.05,0,0,0-.56-.32-.37-.54C17.46,64.26,17.49,64.15,17.76,64.09Z"/><path class="cls-4" d="M18,64.63s-.19.08-.17.23.14.31.28.28.27-.17.25-.25A.28.28,0,0,0,18,64.63Z"/><path class="cls-3" d="M26.08,72.77a.42.42,0,0,1,.39.14,1.25,1.25,0,0,1,.23.52s.13-.5.34-.6.23-.09.47,0a.3.3,0,0,1,.2.39c0,.07,0,.27-.63.69h0s.59-.32.86,0,.19.5,0,.6a1.36,1.36,0,0,1-.9,0s0,0,0,0,.31.5.13.77a.41.41,0,0,1-.6.1c-.17-.1-.24-.48-.18-.76,0,0,.05-.16,0-.11s-.63.6-1,.3-.14-.82.13-.85a1.51,1.51,0,0,1,.59,0s.08,0,0,0-.89-.51-.6-.85C25.59,73,25.65,72.86,26.08,72.77Z"/><path class="cls-4" d="M26.48,73.62s-.3.12-.27.37.23.49.45.44.43-.27.4-.4A.45.45,0,0,0,26.48,73.62Z"/><path class="cls-5" d="M11.16,76.69a.28.28,0,0,1,.25.09.87.87,0,0,1,.14.33s.08-.32.22-.38a.27.27,0,0,1,.29,0,.2.2,0,0,1,.13.24c0,.05,0,.18-.4.44,0,0,0,0,0,0s.37-.21.55,0,.11.31,0,.37a.74.74,0,0,1-.56,0s0,0,0,0,.2.31.08.48a.26.26,0,0,1-.38.06.52.52,0,0,1-.11-.48s0-.1,0-.06-.39.37-.6.18-.09-.51.08-.53a1,1,0,0,1,.37,0s0,0,0,0-.56-.32-.38-.54C10.85,76.86,10.89,76.75,11.16,76.69Z"/><path class="cls-4" d="M11.41,77.23s-.19.07-.17.23.15.31.29.28.26-.17.24-.26A.27.27,0,0,0,11.41,77.23Z"/><path class="cls-5" d="M26,77.93a.27.27,0,0,1,.25.09.87.87,0,0,1,.14.33s.09-.32.22-.38a.27.27,0,0,1,.29,0,.18.18,0,0,1,.13.24s0,.18-.39.44c0,0,0,0,0,0s.37-.2.54,0,.12.31,0,.37a.76.76,0,0,1-.57,0s0,0,0,0,.2.31.08.48a.25.25,0,0,1-.37.06c-.11,0-.15-.3-.11-.48,0,0,0-.1,0-.06s-.4.38-.61.18-.09-.51.08-.53a1,1,0,0,1,.37,0s.06,0,0,0-.56-.32-.37-.54C25.74,78.1,25.77,78,26,77.93Z"/><path class="cls-4" d="M26.3,78.47s-.2.07-.17.23.14.31.28.28.27-.17.25-.26A.27.27,0,0,0,26.3,78.47Z"/><path class="cls-5" d="M6.15,59.09a.28.28,0,0,1,.25.09.81.81,0,0,1,.14.33s.08-.32.22-.38a.27.27,0,0,1,.29,0,.18.18,0,0,1,.13.24s0,.18-.4.44h0s.37-.2.55,0,.11.31,0,.37a.85.85,0,0,1-.56,0s0,0,0,0,.2.32.08.49a.26.26,0,0,1-.38.06.52.52,0,0,1-.11-.48s0-.1,0-.06-.39.37-.6.18-.09-.52.08-.53a1,1,0,0,1,.37,0s0,0,0,0-.56-.33-.38-.54C5.84,59.26,5.88,59.14,6.15,59.09Z"/><path class="cls-4" d="M6.4,59.63s-.19.07-.17.23.15.3.29.28.27-.17.24-.26S6.72,59.58,6.4,59.63Z"/><path class="cls-3" d="M23.76,62.3a.42.42,0,0,1,.39.14,1.25,1.25,0,0,1,.23.52s.13-.5.34-.6.23-.09.47,0a.29.29,0,0,1,.2.38c0,.08,0,.28-.63.7h0s.59-.31.86,0,.18.49,0,.59a1.32,1.32,0,0,1-.89,0s0,0,0,0,.31.5.13.77a.41.41,0,0,1-.6.1c-.17-.1-.24-.48-.18-.76,0,0,.05-.17,0-.11s-.63.6-1,.3-.14-.83.13-.85a1.51,1.51,0,0,1,.59,0s.08,0,0,0-.89-.51-.6-.85C23.27,62.57,23.33,62.39,23.76,62.3Z"/><path class="cls-4" d="M24.16,63.15s-.3.12-.27.37.23.48.45.44.43-.27.4-.4A.45.45,0,0,0,24.16,63.15Z"/><path class="cls-5" d="M21.77,74.36a.28.28,0,0,1,.25.09.81.81,0,0,1,.14.33s.08-.32.21-.38a.29.29,0,0,1,.3,0,.2.2,0,0,1,.13.24c0,.05,0,.18-.4.44h0s.37-.2.55,0,.11.31,0,.37a.85.85,0,0,1-.56,0s0,0,0,0,.2.31.08.48a.26.26,0,0,1-.38.06c-.11-.06-.15-.3-.11-.48,0,0,0-.1,0-.06s-.4.37-.6.18-.1-.52.08-.53a1,1,0,0,1,.37,0s.05,0,0,0-.55-.33-.37-.54C21.46,74.53,21.5,74.41,21.77,74.36Z"/><path class="cls-4" d="M22,74.9s-.19.07-.17.23.15.3.29.28.26-.17.24-.26A.27.27,0,0,0,22,74.9Z"/><path class="cls-3" d="M8.23,74.89a.42.42,0,0,1,.39.14,1.43,1.43,0,0,1,.23.53s.13-.51.34-.6.23-.09.46,0a.29.29,0,0,1,.21.38c0,.07,0,.28-.63.69,0,0,0,0,0,0s.59-.32.87,0,.18.49,0,.59a1.27,1.27,0,0,1-.89,0s0,0,0,0,.32.51.13.78a.39.39,0,0,1-.59.09c-.17-.09-.24-.47-.18-.76,0,0,.05-.16,0-.11s-.63.6-1,.3S7.46,76,7.74,76a1.27,1.27,0,0,1,.58,0s.09,0,0,0-.88-.51-.59-.86C7.74,75.16,7.8,75,8.23,74.89Z"/><path class="cls-4" d="M8.63,75.75s-.31.12-.27.36.23.49.45.45.43-.27.39-.41S9.13,75.67,8.63,75.75Z"/><path class="cls-2" d="M43.88,59.64a1.68,1.68,0,0,0-.62-1.22,1.53,1.53,0,0,1,.7.86c.32.7.47-1,.09-1.4,0,0,.53.18.47,1.33a.43.43,0,0,0,.27-.45,1.76,1.76,0,0,1,.4-.83,3.05,3.05,0,0,0-.3,1.62"/><path class="cls-2" d="M51.53,72a1.65,1.65,0,0,0-.62-1.21,1.57,1.57,0,0,1,.71.85c.31.7.46-1,.08-1.39,0,0,.53.17.47,1.33a.46.46,0,0,0,.27-.46,1.78,1.78,0,0,1,.41-.82,3,3,0,0,0-.31,1.61"/><path class="cls-2" d="M32.44,64.17A1.63,1.63,0,0,0,31.83,63a1.53,1.53,0,0,1,.7.85c.32.7.47-1,.09-1.39,0,0,.53.18.46,1.33a.45.45,0,0,0,.28-.45,1.7,1.7,0,0,1,.4-.83,3.05,3.05,0,0,0-.3,1.62"/><path class="cls-2" d="M39.07,71.74a1.68,1.68,0,0,0-.62-1.22,1.57,1.57,0,0,1,.71.85c.31.71.46-1,.08-1.39,0,0,.53.18.47,1.33a.43.43,0,0,0,.27-.45,1.78,1.78,0,0,1,.41-.83,3,3,0,0,0-.31,1.62"/><path class="cls-3" d="M30.78,57.46a.42.42,0,0,1,.39.14,1.2,1.2,0,0,1,.23.52s.13-.5.34-.6.23-.09.46,0a.29.29,0,0,1,.21.38c0,.07,0,.28-.63.7h0s.59-.32.86,0,.18.49,0,.59a1.32,1.32,0,0,1-.89,0s0,0,0,0,.31.5.13.77a.41.41,0,0,1-.6.1c-.17-.1-.24-.48-.18-.77,0,0,.05-.16,0-.1s-.63.6-1,.29-.14-.82.13-.84a1.51,1.51,0,0,1,.59,0s.08,0,0,0-.89-.51-.6-.85C30.29,57.73,30.35,57.55,30.78,57.46Z"/><path class="cls-4" d="M31.18,58.31s-.3.12-.27.37.23.48.45.44.43-.27.4-.4A.45.45,0,0,0,31.18,58.31Z"/><path class="cls-5" d="M42.27,66.24a.28.28,0,0,1,.25.09.87.87,0,0,1,.14.33s.08-.32.22-.38.14,0,.29,0a.19.19,0,0,1,.13.25s0,.17-.4.43h0s.38-.2.55,0,.12.31,0,.38a.85.85,0,0,1-.56,0s0,0,0,0,.2.32.08.49a.26.26,0,0,1-.38.06.52.52,0,0,1-.11-.48s0-.11,0-.07-.39.38-.6.19-.09-.52.08-.54a1,1,0,0,1,.37,0s.05,0,0,0-.56-.32-.38-.54C42,66.41,42,66.3,42.27,66.24Z"/><path class="cls-4" d="M42.52,66.78s-.19.07-.17.23.15.31.29.28.27-.17.24-.25S42.84,66.73,42.52,66.78Z"/><path class="cls-5" d="M43.17,61.25a.29.29,0,0,1,.25.08.88.88,0,0,1,.14.34s.08-.32.21-.38.15-.06.3,0a.2.2,0,0,1,.13.24s0,.18-.4.44h0s.37-.2.55,0,.11.31,0,.37a.85.85,0,0,1-.56,0s0,0,0,0,.2.32.08.49a.26.26,0,0,1-.38.06.52.52,0,0,1-.11-.48s0-.1,0-.07-.4.38-.6.19-.1-.52.08-.53a.77.77,0,0,1,.37,0s.05,0,0,0-.55-.33-.37-.54C42.86,61.42,42.9,61.3,43.17,61.25Z"/><path class="cls-4" d="M43.42,61.78s-.19.08-.17.24.15.3.29.28.26-.17.24-.26A.28.28,0,0,0,43.42,61.78Z"/><path class="cls-3" d="M46.72,57.36a.44.44,0,0,1,.4.14,1.41,1.41,0,0,1,.23.52s.13-.5.34-.6.23-.09.46,0a.3.3,0,0,1,.21.38c0,.08,0,.28-.63.7h0s.59-.31.87,0,.18.49,0,.59a1.32,1.32,0,0,1-.89,0s0,0,0,0,.32.5.13.77a.4.4,0,0,1-.59.1c-.17-.1-.24-.48-.18-.76,0,0,.05-.17,0-.11s-.63.6-1,.3-.15-.83.13-.85a1.47,1.47,0,0,1,.58,0s.09,0,0,0-.88-.51-.59-.85C46.24,57.63,46.3,57.45,46.72,57.36Z"/><path class="cls-4" d="M47.13,58.21s-.31.12-.27.37.23.48.45.44.43-.27.39-.4A.43.43,0,0,0,47.13,58.21Z"/><path class="cls-5" d="M51.8,58.77a.28.28,0,0,1,.25.09.87.87,0,0,1,.14.33s.08-.32.22-.38.14-.05.29,0a.19.19,0,0,1,.13.25s0,.17-.4.43h0s.37-.2.55,0,.11.31,0,.38a.85.85,0,0,1-.56,0s0,0,0,0,.2.32.08.49a.26.26,0,0,1-.38.06.52.52,0,0,1-.11-.48s0-.11,0-.07-.39.38-.6.19-.09-.52.08-.54a1,1,0,0,1,.37,0s0,0,0,0-.56-.32-.38-.54C51.49,58.94,51.53,58.83,51.8,58.77Z"/><path class="cls-4" d="M52.05,59.31s-.19.08-.17.23.15.31.29.28.27-.17.24-.25S52.37,59.26,52.05,59.31Z"/><path class="cls-3" d="M36.13,61.62a.44.44,0,0,1,.4.14,1.32,1.32,0,0,1,.22.52s.13-.5.35-.6.22-.09.46,0a.3.3,0,0,1,.21.38c-.05.08,0,.28-.64.7h0s.59-.32.86,0,.19.5,0,.6a1.36,1.36,0,0,1-.9-.05s0,0,0,0,.32.5.13.77a.41.41,0,0,1-.6.1.78.78,0,0,1-.17-.76s0-.16,0-.11-.63.6-1,.3-.14-.82.13-.85a1.51,1.51,0,0,1,.59,0s.08,0,0,0-.89-.51-.59-.85C35.65,61.89,35.7,61.71,36.13,61.62Z"/><path class="cls-4" d="M36.54,62.47s-.31.12-.28.37.23.48.46.44.42-.27.39-.4A.45.45,0,0,0,36.54,62.47Z"/><path class="cls-5" d="M33.5,66a.28.28,0,0,1,.25.09.87.87,0,0,1,.14.33s.08-.32.22-.38a.27.27,0,0,1,.29,0,.18.18,0,0,1,.13.24s0,.18-.4.44h0s.38-.2.55,0,.12.31,0,.37a.74.74,0,0,1-.56,0s0,0,0,0,.2.32.08.49a.26.26,0,0,1-.38.06.54.54,0,0,1-.11-.49s0-.1,0-.06-.39.38-.6.18-.09-.51.08-.53a1,1,0,0,1,.37,0s0,0,0,0-.56-.32-.38-.54C33.19,66.12,33.23,66,33.5,66Z"/><path class="cls-4" d="M33.75,66.49s-.19.07-.17.23.15.31.29.28.27-.17.25-.26S34.07,66.44,33.75,66.49Z"/><path class="cls-5" d="M54.61,67.6a.26.26,0,0,1,.24.09A.79.79,0,0,1,55,68s.08-.32.21-.38a.32.32,0,0,1,.3,0,.21.21,0,0,1,.13.25s0,.17-.4.44h0s.37-.2.55,0,.11.31,0,.38a.85.85,0,0,1-.56,0s0,0,0,0,.2.32.08.49a.26.26,0,0,1-.38.06c-.11-.06-.15-.3-.11-.48,0,0,0-.1,0-.07s-.4.38-.61.19-.09-.52.09-.53a.84.84,0,0,1,.37,0s0,0,0,0-.55-.32-.37-.54C54.3,67.77,54.34,67.66,54.61,67.6Z"/><path class="cls-4" d="M54.86,68.14s-.19.08-.17.23.14.31.28.28.27-.17.25-.25A.28.28,0,0,0,54.86,68.14Z"/><path class="cls-3" d="M32.24,69.19a.42.42,0,0,1,.39.14,1.27,1.27,0,0,1,.23.53s.13-.51.34-.61a.49.49,0,0,1,.47,0,.3.3,0,0,1,.2.39c0,.07,0,.28-.63.69a0,0,0,0,0,0,0s.59-.32.86,0,.19.5,0,.6a1.3,1.3,0,0,1-.9,0s0,0,0,0,.31.51.13.78a.4.4,0,0,1-.6.09c-.17-.09-.24-.47-.18-.76,0,0,0-.16,0-.11s-.63.6-1,.3-.14-.82.13-.84a1.31,1.31,0,0,1,.59,0s.08,0,0,0-.89-.51-.6-.86C31.75,69.46,31.81,69.28,32.24,69.19Z"/><path class="cls-4" d="M32.65,70.05s-.31.11-.28.36.23.49.45.45.43-.27.4-.41A.44.44,0,0,0,32.65,70.05Z"/><path class="cls-5" d="M31.07,77.85a.27.27,0,0,1,.25.09.79.79,0,0,1,.15.33s.08-.32.21-.38.14,0,.29,0a.18.18,0,0,1,.13.24s0,.17-.39.44h0s.37-.2.54,0,.12.31,0,.38a.88.88,0,0,1-.57,0s0,0,0,0,.2.32.08.49a.25.25,0,0,1-.37.06c-.11-.06-.15-.3-.11-.48,0,0,0-.1,0-.07s-.4.38-.61.19-.09-.52.08-.53a.89.89,0,0,1,.38,0s.05,0,0,0-.56-.32-.37-.54C30.77,78,30.8,77.91,31.07,77.85Z"/><path class="cls-4" d="M31.33,78.39s-.2.08-.17.23.14.31.28.28.27-.17.25-.25A.28.28,0,0,0,31.33,78.39Z"/><path class="cls-3" d="M45,69.83a.42.42,0,0,1,.39.14,1.25,1.25,0,0,1,.23.52s.13-.5.34-.6.23-.09.47,0a.3.3,0,0,1,.21.38c0,.08,0,.28-.64.7a0,0,0,0,0,0,0s.59-.32.86,0,.19.49,0,.59a1.35,1.35,0,0,1-.9,0s0,0,0,0,.32.5.13.77a.41.41,0,0,1-.6.1.78.78,0,0,1-.17-.76s.05-.17,0-.11-.63.6-1,.3-.14-.82.13-.85a1.51,1.51,0,0,1,.59,0s.08,0,0,0-.89-.51-.6-.85C44.55,70.1,44.61,69.92,45,69.83Z"/><path class="cls-4" d="M45.45,70.68s-.31.12-.28.37.23.48.45.44.43-.27.4-.4A.44.44,0,0,0,45.45,70.68Z"/><path class="cls-5" d="M47.48,63.78a.27.27,0,0,1,.25.09.81.81,0,0,1,.14.33s.09-.32.22-.38a.27.27,0,0,1,.29,0,.18.18,0,0,1,.13.24s0,.18-.4.44h0s.37-.2.54,0,.12.31,0,.37a.88.88,0,0,1-.57,0s0,0,0,0,.2.32.08.49a.25.25,0,0,1-.37.06c-.11-.06-.15-.3-.11-.48,0,0,0-.1,0-.07s-.4.38-.61.19-.09-.52.08-.53a1,1,0,0,1,.37,0s.06,0,0,0-.56-.33-.38-.54C47.17,64,47.21,63.83,47.48,63.78Z"/><path class="cls-4" d="M47.74,64.32s-.2.07-.17.23.14.3.28.28.27-.17.25-.26A.27.27,0,0,0,47.74,64.32Z"/><path class="cls-3" d="M55.8,72.45a.42.42,0,0,1,.39.14,1.27,1.27,0,0,1,.23.53s.13-.51.34-.6a.45.45,0,0,1,.46,0,.3.3,0,0,1,.21.39c0,.07,0,.28-.63.69,0,0,0,0,0,0s.59-.32.87,0,.18.5,0,.6a1.27,1.27,0,0,1-.89,0s0,0,0,0,.31.51.13.78a.4.4,0,0,1-.6.09c-.17-.09-.24-.47-.18-.76,0,0,.05-.16,0-.11s-.63.6-1,.3-.15-.82.13-.84a1.31,1.31,0,0,1,.59,0s.08,0,0,0-.89-.51-.6-.86C55.31,72.72,55.37,72.54,55.8,72.45Z"/><path class="cls-4" d="M56.2,73.31s-.3.12-.27.36.23.49.45.45.43-.27.39-.41S56.7,73.23,56.2,73.31Z"/><path class="cls-5" d="M40.87,76.37a.27.27,0,0,1,.25.09.79.79,0,0,1,.15.33s.08-.32.21-.38a.28.28,0,0,1,.29,0,.19.19,0,0,1,.14.24s0,.17-.4.44h0s.37-.2.55,0,.11.31,0,.38a.85.85,0,0,1-.56,0s0,0,0,0,.2.32.09.49a.26.26,0,0,1-.38.06c-.11-.06-.15-.3-.11-.48,0,0,0-.1,0-.07s-.4.38-.61.19-.09-.52.09-.53a.84.84,0,0,1,.37,0s.05,0,0,0-.56-.32-.37-.54C40.57,76.54,40.61,76.43,40.87,76.37Z"/><path class="cls-4" d="M41.13,76.91s-.19.08-.17.23.14.31.28.28.27-.17.25-.25A.28.28,0,0,0,41.13,76.91Z"/><path class="cls-5" d="M55.76,77.61a.27.27,0,0,1,.25.09.87.87,0,0,1,.14.33s.09-.32.22-.38.14-.05.29,0a.18.18,0,0,1,.13.24s0,.17-.4.44h0s.37-.2.54,0,.12.31,0,.38a.88.88,0,0,1-.57,0s0,0,0,0,.2.32.08.49a.25.25,0,0,1-.37.06c-.11-.06-.15-.3-.12-.48,0,0,0-.1,0-.07s-.4.38-.61.19-.09-.52.08-.53a.84.84,0,0,1,.37,0s.06,0,0,0-.56-.32-.38-.54C55.45,77.78,55.49,77.67,55.76,77.61Z"/><path class="cls-4" d="M56,78.15s-.2.08-.18.23.15.31.29.28.27-.17.25-.25A.28.28,0,0,0,56,78.15Z"/><path class="cls-5" d="M35.87,58.77a.26.26,0,0,1,.24.09.79.79,0,0,1,.15.33s.08-.32.21-.38a.32.32,0,0,1,.3,0,.21.21,0,0,1,.13.25s0,.17-.4.43c0,0,0,0,0,0s.37-.2.55,0,.11.31,0,.38a.85.85,0,0,1-.56,0s0,0,0,0,.2.32.08.49a.26.26,0,0,1-.38.06c-.11-.06-.15-.3-.11-.48,0,0,0-.11,0-.07s-.4.38-.61.19-.09-.52.09-.54a1,1,0,0,1,.37,0s0,0,0,0-.55-.32-.37-.54C35.56,58.94,35.6,58.83,35.87,58.77Z"/><path class="cls-4" d="M36.12,59.31s-.19.08-.17.23.15.31.28.28.27-.17.25-.25A.28.28,0,0,0,36.12,59.31Z"/><path class="cls-3" d="M53.48,62a.42.42,0,0,1,.39.14,1.27,1.27,0,0,1,.23.53s.13-.51.34-.61a.47.47,0,0,1,.46,0,.3.3,0,0,1,.21.39c0,.07,0,.28-.63.69,0,0,0,0,0,0s.59-.32.87,0,.18.5,0,.6a1.27,1.27,0,0,1-.89-.05s0,0,0,0,.31.51.13.78a.4.4,0,0,1-.6.09c-.17-.09-.24-.47-.18-.76,0,0,.05-.16,0-.11s-.63.6-1,.3-.15-.82.13-.84a1.38,1.38,0,0,1,.59,0s.08,0,0,0-.89-.52-.6-.86C53,62.25,53.05,62.07,53.48,62Z"/><path class="cls-4" d="M53.88,62.84s-.3.11-.27.36.23.49.45.45.43-.27.39-.41S54.38,62.76,53.88,62.84Z"/><path class="cls-5" d="M51.48,74a.27.27,0,0,1,.25.09.79.79,0,0,1,.15.33s.08-.32.21-.38a.3.3,0,0,1,.29,0,.21.21,0,0,1,.14.25s0,.17-.4.43c0,0,0,0,0,0s.37-.2.55,0,.11.31,0,.38a.85.85,0,0,1-.56,0s0,0,0,0,.2.32.09.49a.26.26,0,0,1-.38.06c-.11-.06-.15-.3-.11-.48,0,0,0-.11,0-.07s-.4.38-.61.19-.09-.52.09-.53a.84.84,0,0,1,.37,0s.05,0,0,0-.56-.32-.37-.54C51.18,74.21,51.22,74.1,51.48,74Z"/><path class="cls-4" d="M51.74,74.58s-.19.08-.17.23.14.31.28.28.27-.17.25-.25A.28.28,0,0,0,51.74,74.58Z"/><path class="cls-3" d="M37.94,74.58a.44.44,0,0,1,.4.14,1.41,1.41,0,0,1,.23.52s.13-.5.34-.6.22-.09.46,0a.3.3,0,0,1,.21.38c0,.08,0,.28-.63.7h0s.59-.31.87,0,.18.49,0,.59a1.32,1.32,0,0,1-.89,0s0,0,0,0,.32.5.13.77a.41.41,0,0,1-.6.1.83.83,0,0,1-.17-.76s.05-.17,0-.11-.62.6-1,.3-.14-.83.14-.85a1.47,1.47,0,0,1,.58,0s.09,0,0,0-.88-.51-.59-.85C37.46,74.85,37.52,74.67,37.94,74.58Z"/><path class="cls-4" d="M38.35,75.43s-.31.12-.27.37.23.48.45.44.42-.27.39-.4A.44.44,0,0,0,38.35,75.43Z"/><path class="cls-2" d="M73.24,60.42a1.66,1.66,0,0,0-.61-1.21,1.53,1.53,0,0,1,.7.85c.31.7.46-1,.09-1.39,0,0,.52.17.46,1.33a.46.46,0,0,0,.28-.45,1.7,1.7,0,0,1,.4-.83,3,3,0,0,0-.3,1.62"/><path class="cls-2" d="M61.81,65a1.69,1.69,0,0,0-.61-1.22,1.58,1.58,0,0,1,.7.86c.31.7.46-1,.09-1.4,0,0,.52.18.46,1.33a.43.43,0,0,0,.27-.45,1.84,1.84,0,0,1,.41-.83,3,3,0,0,0-.3,1.62"/><path class="cls-2" d="M68.43,72.52a1.62,1.62,0,0,0-.61-1.21,1.53,1.53,0,0,1,.7.85c.32.7.47-1,.09-1.39,0,0,.53.17.46,1.33a.45.45,0,0,0,.28-.45,1.7,1.7,0,0,1,.4-.83,3,3,0,0,0-.3,1.62"/><path class="cls-3" d="M60.14,58.24a.44.44,0,0,1,.4.14,1.41,1.41,0,0,1,.23.52s.13-.5.34-.6a.47.47,0,0,1,.46,0,.3.3,0,0,1,.21.39c0,.07,0,.28-.63.69,0,0,0,0,0,0s.59-.32.87-.05.18.5,0,.6a1.27,1.27,0,0,1-.89,0s0,0,0,0,.32.51.13.78a.39.39,0,0,1-.59.09c-.17-.09-.24-.48-.18-.76,0,0,0-.16,0-.11s-.62.6-1,.3-.14-.82.14-.84a1.34,1.34,0,0,1,.58,0s.09,0,0,0-.88-.52-.59-.86C59.66,58.51,59.72,58.33,60.14,58.24Z"/><path class="cls-4" d="M60.55,59.09s-.31.12-.27.37.23.49.45.44.43-.26.39-.4A.44.44,0,0,0,60.55,59.09Z"/><path class="cls-5" d="M71.63,67a.29.29,0,0,1,.25.08.81.81,0,0,1,.15.34s.08-.32.21-.38.15-.06.29,0a.2.2,0,0,1,.14.24s0,.18-.4.44h0s.37-.2.55,0,.11.31,0,.37a.85.85,0,0,1-.56,0s0,0,0,0,.2.32.09.49a.26.26,0,0,1-.38.06c-.11-.06-.15-.3-.11-.48,0,0,0-.1,0-.07s-.4.38-.61.19-.09-.52.09-.53a.77.77,0,0,1,.37,0s0,0,0,0-.56-.33-.37-.54C71.33,67.2,71.37,67.08,71.63,67Z"/><path class="cls-4" d="M71.89,67.56s-.19.08-.17.24.14.3.28.28.27-.17.25-.26A.28.28,0,0,0,71.89,67.56Z"/><path class="cls-5" d="M72.53,62a.27.27,0,0,1,.25.09.87.87,0,0,1,.14.33s.09-.32.22-.38.14,0,.29,0a.19.19,0,0,1,.13.25s0,.17-.4.44h0s.37-.2.54,0,.12.31,0,.38a.88.88,0,0,1-.57,0s0,0,0,0,.2.32.08.49a.25.25,0,0,1-.37.06c-.11-.06-.15-.3-.11-.48,0,0,0-.1,0-.07s-.4.38-.61.19-.09-.52.08-.53a.85.85,0,0,1,.37,0s.06,0,0,0-.56-.32-.37-.54C72.23,62.2,72.26,62.09,72.53,62Z"/><path class="cls-4" d="M72.79,62.57s-.2.08-.17.23.14.31.28.28.27-.17.25-.25A.28.28,0,0,0,72.79,62.57Z"/><path class="cls-3" d="M76.09,58.14a.44.44,0,0,1,.4.14,1.34,1.34,0,0,1,.22.53s.13-.51.35-.6.22-.09.46,0a.3.3,0,0,1,.21.38c0,.07,0,.28-.64.69h0s.59-.32.86,0,.19.49,0,.59a1.3,1.3,0,0,1-.9,0s0,0,0,0,.32.51.13.78a.4.4,0,0,1-.6.09c-.17-.09-.24-.47-.17-.76,0,0,0-.16,0-.11s-.63.6-1,.3-.14-.82.13-.84a1.31,1.31,0,0,1,.59,0s.08,0,0,0-.89-.51-.59-.86C75.61,58.41,75.66,58.23,76.09,58.14Z"/><path class="cls-4" d="M76.5,59s-.31.12-.28.36.23.49.46.45.42-.27.39-.41A.44.44,0,0,0,76.5,59Z"/><path class="cls-3" d="M65.5,62.4a.45.45,0,0,1,.39.14,1.27,1.27,0,0,1,.23.53s.13-.51.34-.6.23-.09.46,0a.29.29,0,0,1,.21.38c0,.07,0,.28-.63.69,0,0,0,0,0,0s.59-.32.87,0,.18.49,0,.59a1.32,1.32,0,0,1-.89,0s0,0,0,0,.31.51.13.78a.4.4,0,0,1-.6.09c-.17-.09-.24-.47-.18-.76,0,0,.05-.16,0-.11s-.63.6-1,.3-.15-.82.13-.84a1.31,1.31,0,0,1,.59,0s.08,0,0,0-.89-.51-.6-.86C65,62.67,65.07,62.49,65.5,62.4Z"/><path class="cls-4" d="M65.9,63.26s-.3.12-.27.36.23.49.45.45.43-.27.39-.41S66.4,63.18,65.9,63.26Z"/><path class="cls-5" d="M62.86,66.73a.27.27,0,0,1,.25.09.79.79,0,0,1,.15.33s.08-.32.21-.38a.28.28,0,0,1,.29,0,.2.2,0,0,1,.14.24s0,.17-.4.44h0s.37-.2.55,0,.11.31,0,.38a.85.85,0,0,1-.56,0s0,0,0,0,.2.32.09.49a.26.26,0,0,1-.38.06c-.11-.06-.15-.3-.11-.48,0,0,0-.1,0-.07s-.4.38-.61.19-.09-.52.09-.53a.77.77,0,0,1,.37,0s0,0,0,0-.56-.32-.37-.53C62.56,66.91,62.6,66.79,62.86,66.73Z"/><path class="cls-4" d="M63.12,67.27s-.19.08-.17.23.14.31.28.28.27-.17.25-.25A.28.28,0,0,0,63.12,67.27Z"/><path class="cls-3" d="M61.6,70a.44.44,0,0,1,.4.14,1.41,1.41,0,0,1,.23.52s.13-.5.34-.6.23-.09.46,0a.3.3,0,0,1,.21.38c0,.08,0,.28-.63.7h0s.59-.31.87,0,.18.49,0,.59a1.32,1.32,0,0,1-.89,0s0,0,0,0,.32.5.13.77a.4.4,0,0,1-.59.1c-.17-.1-.24-.48-.18-.76,0,0,0-.17,0-.11s-.63.6-1,.3-.15-.83.13-.85a1.47,1.47,0,0,1,.58,0s.09,0,0,0-.88-.51-.59-.85C61.12,70.25,61.18,70.07,61.6,70Z"/><path class="cls-4" d="M62,70.83s-.31.12-.27.37.23.48.45.44.43-.27.39-.4A.43.43,0,0,0,62,70.83Z"/><path class="cls-5" d="M60.44,78.64a.28.28,0,0,1,.25.09.81.81,0,0,1,.14.33s.08-.32.22-.38a.27.27,0,0,1,.29,0,.18.18,0,0,1,.13.24s0,.18-.4.44h0s.38-.2.55,0,.12.31,0,.37a.85.85,0,0,1-.56,0s0,0,0,0,.2.32.08.49a.26.26,0,0,1-.38.06.52.52,0,0,1-.11-.48s0-.1,0-.06-.39.37-.6.18-.09-.52.08-.53a1,1,0,0,1,.37,0s0,0,0,0-.56-.33-.38-.54C60.13,78.81,60.17,78.69,60.44,78.64Z"/><path class="cls-4" d="M60.69,79.18s-.19.07-.17.23.15.3.29.28.27-.17.24-.26S61,79.13,60.69,79.18Z"/><path class="cls-3" d="M74.41,70.61a.42.42,0,0,1,.39.14,1.43,1.43,0,0,1,.23.53s.13-.51.34-.6.23-.09.46,0a.29.29,0,0,1,.21.38c0,.07,0,.28-.63.69,0,0,0,0,0,0s.59-.32.87,0,.18.49,0,.59a1.32,1.32,0,0,1-.89,0s0,0,0,0,.32.51.13.78a.39.39,0,0,1-.59.09c-.17-.09-.24-.47-.18-.76,0,0,0-.16,0-.11s-.63.6-1,.3-.15-.82.13-.84a1.31,1.31,0,0,1,.59,0s.08,0,0,0-.88-.51-.59-.86C73.92,70.88,74,70.7,74.41,70.61Z"/><path class="cls-4" d="M74.81,71.47s-.31.12-.27.36.23.49.45.45.43-.27.39-.41S75.31,71.39,74.81,71.47Z"/><path class="cls-5" d="M76.85,64.56a.28.28,0,0,1,.25.09.87.87,0,0,1,.14.33s.08-.32.22-.38.14,0,.29,0a.2.2,0,0,1,.13.25s0,.17-.4.44h0s.37-.2.55,0,.11.31,0,.38a.85.85,0,0,1-.56,0s0,0,0,0,.2.32.08.49a.26.26,0,0,1-.38.06.52.52,0,0,1-.11-.48s0-.1,0-.07-.39.38-.6.19-.09-.52.08-.53a.84.84,0,0,1,.37,0s0,0,0,0-.56-.32-.38-.54C76.54,64.73,76.58,64.62,76.85,64.56Z"/><path class="cls-4" d="M77.1,65.1s-.19.08-.17.23.15.31.29.28.26-.17.24-.25A.28.28,0,0,0,77.1,65.1Z"/><path class="cls-5" d="M76.53,78.87a.29.29,0,0,1,.25.08.81.81,0,0,1,.15.34s.08-.32.21-.38.15-.06.29,0a.2.2,0,0,1,.14.24s0,.18-.4.44h0s.37-.2.55,0,.11.31,0,.37a.85.85,0,0,1-.56,0s0,0,0,0,.2.32.09.49a.26.26,0,0,1-.38.06c-.11-.06-.15-.3-.11-.48,0,0,0-.1,0-.07s-.4.38-.61.19-.09-.52.09-.53a.77.77,0,0,1,.37,0s.05,0,0,0-.56-.33-.37-.54C76.23,79,76.27,78.92,76.53,78.87Z"/><path class="cls-4" d="M76.79,79.4s-.19.08-.17.24.14.3.28.28.27-.17.25-.26A.28.28,0,0,0,76.79,79.4Z"/><path class="cls-5" d="M70.24,77.16a.27.27,0,0,1,.25.09.81.81,0,0,1,.14.33s.09-.32.22-.38a.27.27,0,0,1,.29,0,.18.18,0,0,1,.13.24s0,.18-.4.44h0s.37-.2.54,0,.12.31,0,.37a.88.88,0,0,1-.57,0s0,0,0,0,.2.31.08.48a.25.25,0,0,1-.37.06c-.11-.06-.15-.3-.12-.48,0,0,0-.1,0-.06s-.4.37-.61.18-.09-.52.08-.53a1,1,0,0,1,.37,0s.06,0,0,0-.56-.33-.38-.54C69.93,77.33,70,77.21,70.24,77.16Z"/><path class="cls-4" d="M70.5,77.7s-.2.07-.18.23.15.3.29.28.27-.17.25-.26A.27.27,0,0,0,70.5,77.7Z"/><path class="cls-5" d="M65.23,59.56a.29.29,0,0,1,.25.08.88.88,0,0,1,.14.34s.09-.32.22-.38.14-.06.29,0a.18.18,0,0,1,.13.24c0,.05,0,.18-.4.44h0s.37-.2.54,0,.12.31,0,.37a.88.88,0,0,1-.57,0s0,0,0,0,.2.32.08.49a.25.25,0,0,1-.37.06c-.11-.06-.15-.3-.11-.48,0,0,0-.1,0-.07s-.4.38-.61.19-.09-.52.08-.53a.78.78,0,0,1,.37,0s.06,0,0,0-.56-.33-.37-.54C64.93,59.73,65,59.61,65.23,59.56Z"/><path class="cls-4" d="M65.49,60.09s-.2.08-.17.24.14.3.28.28.27-.17.25-.26A.28.28,0,0,0,65.49,60.09Z"/><path class="cls-5" d="M78.94,73.21a.27.27,0,0,1,.25.09.87.87,0,0,1,.14.33s.09-.32.22-.38.14,0,.29,0a.18.18,0,0,1,.13.24s0,.17-.4.44h0s.37-.2.54,0,.12.31,0,.38a.88.88,0,0,1-.57,0s0,0,0,0,.2.32.08.49a.25.25,0,0,1-.37.06c-.11-.06-.15-.3-.12-.48,0,0,0-.1,0-.07s-.4.38-.61.19-.09-.52.08-.53a.84.84,0,0,1,.37,0s.06,0,0,0-.56-.32-.38-.54C78.63,73.38,78.67,73.27,78.94,73.21Z"/><path class="cls-4" d="M79.2,73.75s-.2.08-.18.23.15.31.29.28.27-.17.25-.25A.28.28,0,0,0,79.2,73.75Z"/><path class="cls-3" d="M67.31,75.36a.42.42,0,0,1,.39.14,1.27,1.27,0,0,1,.23.53s.13-.51.34-.6a.46.46,0,0,1,.47,0,.3.3,0,0,1,.2.39c0,.07,0,.28-.63.69a0,0,0,0,0,0,0s.59-.32.86,0,.19.5,0,.6a1.3,1.3,0,0,1-.9,0s0,0,0,0,.31.51.13.78a.4.4,0,0,1-.6.09c-.17-.09-.24-.47-.18-.76,0,0,0-.16,0-.11s-.63.6-1,.3-.14-.82.13-.84a1.31,1.31,0,0,1,.59,0s.08,0,0,0-.89-.51-.6-.86C66.82,75.63,66.88,75.45,67.31,75.36Z"/><path class="cls-4" d="M67.71,76.22s-.3.12-.27.36.23.49.45.45.43-.27.4-.41A.44.44,0,0,0,67.71,76.22Z"/></g></g></svg>